<svg width="205" height="156" viewBox="0 0 205 156" fill="none" xmlns="http://www.w3.org/2000/svg">
<g filter="url(#filter0_d_358_6775)">
<path d="M184.339 69.9027L151.791 111.451C151.3 112.074 150.399 112.183 149.775 111.694L111.165 81.3228C110.544 80.8308 110.436 79.9286 110.923 79.303L149.113 30.5487C149.604 29.9258 150.505 29.8172 151.129 30.3056L182.544 55.0184L183.119 59.8073L183.735 64.9248L184.339 69.9027Z" fill="black"/>
</g>
<path d="M184.339 69.9027L151.791 111.451C151.3 112.074 150.399 112.183 149.775 111.694L111.165 81.3228C110.544 80.8308 110.436 79.9286 110.923 79.303L149.113 30.5487C149.604 29.9258 150.505 29.8172 151.129 30.3056L182.544 55.0184L183.119 59.8073L183.735 64.9248L184.339 69.9027Z" fill="white"/>
<path d="M177.365 64C177.397 64.2599 176.828 65.4581 184.44 72L185.335 70.909L177.365 64Z" fill="#CECECE"/>
<path d="M177.837 62.1998C177.083 63.1742 177.25 64.5818 178.212 65.3475L185.335 71L183.429 55L177.837 62.1998Z" fill="#EDEDED"/>
<path d="M133.625 85.9191C133.781 85.6863 133.625 85.3819 133.314 85.4061C132.893 85.4467 132.469 85.4443 132.05 85.3989L131.477 85.2745C131.072 85.2273 130.993 85.0056 131.24 84.6093C131.681 84.5556 131.598 83.9468 131.158 83.9772C130.615 84.0148 129.889 84.0721 129.443 83.7005C129.305 83.5731 129.189 83.4266 129.099 83.2663C129.255 83.2606 129.411 83.2399 129.562 83.2045C129.688 83.1741 129.747 83.0541 129.776 82.9521C129.86 82.6638 129.852 82.4319 129.873 82.2099C131.848 81.8876 133.897 81.1436 135.385 80.0862C135.675 79.8812 135.472 79.506 135.139 79.5141C133.585 79.5544 131.986 79.8382 130.588 80.4989C130.095 80.7308 129.611 81.0173 129.362 81.4954C129.339 81.5451 129.319 81.5959 129.302 81.6476C128.847 81.7099 128.387 81.7458 127.927 81.7551C127.313 81.7718 126.7 81.6972 126.112 81.5339C125.689 81.4095 125.048 81.2286 125.048 80.7613C126.144 80.8624 127.215 80.695 127.421 79.7549C127.73 78.3404 125.278 79.19 124.526 80.062C124.019 79.9748 123.523 79.8416 123.045 79.6645C122.634 79.5168 122.368 80.1032 122.78 80.2518C123.266 80.422 123.767 80.5558 124.277 80.652C124.122 82.174 127.073 82.4238 128.159 82.3889C128.482 82.3782 128.815 82.3522 129.15 82.3146C129.111 82.6871 129.15 82.6486 128.562 82.6405C128.263 82.6405 128.069 82.9001 128.238 83.1455C128.549 83.5985 128.805 84.1491 129.332 84.4132C129.498 84.4917 129.676 84.5475 129.859 84.5788C129.815 84.6561 129.808 84.747 129.839 84.8295C130.259 85.7982 131.532 86.0436 132.627 86.0615C131.863 86.8005 130.837 87.2593 129.736 87.3534C128.062 87.4751 126.844 86.3945 125.767 85.3604C125.464 85.0695 124.908 85.4446 125.214 85.7383C126.389 86.8663 127.686 88.0177 129.491 87.9998C131.068 87.9801 132.788 87.1654 133.625 85.9191ZM126.179 79.6896C126.856 79.6591 126.105 80.0602 125.844 80.1059C125.676 80.1326 125.506 80.1422 125.335 80.1345C125.476 79.9707 125.988 79.6985 126.178 79.6869L126.179 79.6896ZM130.402 81.3298C130.813 80.9931 131.533 80.7926 132.054 80.6323C132.633 80.457 133.229 80.3311 133.833 80.2563C132.703 80.8299 131.488 81.2468 130.227 81.4936C130.282 81.4361 130.34 81.3815 130.401 81.3298H130.402Z" fill="#4684AF"/>
<path d="M158.081 45.8477L173.394 57.9136C173.989 58.3821 174.092 59.2458 173.626 59.8426C173.159 60.4395 172.299 60.5435 171.704 60.075L156.39 48.0091C155.796 47.5406 155.692 46.677 156.159 46.0801C156.626 45.4832 157.486 45.3792 158.081 45.8477Z" fill="#D2D4D8"/>
<path d="M173.65 70.9623L144.555 47.2299C144.482 47.1693 144.469 47.0582 144.526 46.9811L145.972 45.0676C146.031 44.9909 146.137 44.9775 146.212 45.0375L175.309 68.767C175.382 68.8279 175.395 68.9389 175.337 69.0158L173.891 70.9302C173.863 70.9679 173.822 70.9925 173.777 70.9986C173.731 71.0046 173.686 70.9915 173.65 70.9623Z" fill="#D2D4D8"/>
<path d="M170.662 75.9613L141.566 52.2297C141.492 52.1692 141.479 52.0581 141.537 51.981L142.983 50.0676C143.041 49.9909 143.148 49.9775 143.222 50.0375L172.319 73.771C172.393 73.8316 172.406 73.9427 172.348 74.0198L170.902 75.9341C170.842 76.01 170.735 76.0221 170.662 75.9613Z" fill="#D2D4D8"/>
<path d="M166.679 79.963L137.582 56.2299C137.508 56.1696 137.495 56.0589 137.553 55.9821L139 54.0676C139.058 53.9909 139.165 53.9775 139.239 54.0375L168.334 77.7706C168.37 77.7994 168.393 77.8417 168.398 77.8882C168.404 77.9348 168.391 77.9816 168.363 78.0184L166.917 79.9328C166.859 80.0089 166.753 80.0223 166.679 79.963Z" fill="#D2D4D8"/>
<path d="M163.692 83.964L134.592 60.2309C134.519 60.1704 134.506 60.0593 134.563 59.9821L136.01 58.0676C136.068 57.9909 136.175 57.9775 136.249 58.0375L165.346 81.7715C165.419 81.832 165.432 81.9424 165.375 82.0193L163.928 83.9338C163.87 84.0086 163.765 84.0219 163.692 83.964Z" fill="#D2D4D8"/>
<path d="M160.7 89.9629L131.604 66.2302C131.53 66.1696 131.517 66.0585 131.575 65.9814L133.021 64.067C133.08 63.9906 133.187 63.9776 133.261 64.0379L162.358 87.7696C162.431 87.8304 162.444 87.9415 162.386 88.0183L160.94 89.9318C160.882 90.0088 160.775 90.0227 160.7 89.9629Z" fill="#D2D4D8"/>
<path d="M157.711 92.9621L128.614 69.2299C128.541 69.169 128.528 69.058 128.586 68.9811L130.032 67.0676C130.091 66.9909 130.197 66.9775 130.272 67.0375L159.368 90.7698C159.442 90.8303 159.455 90.9414 159.397 91.0185L157.951 92.933C157.892 93.0093 157.785 93.0224 157.711 92.9621Z" fill="#D2D4D8"/>
<path d="M142.221 100.042C140.795 98.9185 140.183 97.0428 140.67 95.2896C141.158 93.5364 142.65 92.2509 144.45 92.0326C146.251 91.8143 148.004 92.7062 148.894 94.2923C149.784 95.8784 149.634 97.8465 148.515 99.2787C146.986 101.232 144.17 101.574 142.221 100.042ZM147.158 93.7281C145.633 92.5244 143.424 92.7902 142.225 94.3218C141.027 95.8534 141.291 98.0707 142.817 99.2744C144.342 100.478 146.551 100.212 147.75 98.6808C148.947 97.1487 148.682 94.9328 147.158 93.7281Z" fill="#D2D4D8"/>
<g filter="url(#filter1_d_358_6775)">
<path d="M100.525 78.9097L57.2103 108.949C57.0764 109.041 56.8955 109.005 56.8048 108.868L21.0076 54.5087C20.9179 54.3716 20.9532 54.1858 21.0867 54.0935L64.404 24.0509C64.5376 23.9588 64.7186 23.9951 64.8086 24.132L100.606 78.4916C100.65 78.5579 100.666 78.6394 100.651 78.718C100.635 78.7966 100.59 78.8656 100.525 78.9097Z" fill="black"/>
</g>
<path d="M100.525 78.9097L57.2103 108.949C57.0764 109.041 56.8955 109.005 56.8048 108.868L21.0076 54.5087C20.9179 54.3716 20.9532 54.1858 21.0867 54.0935L64.404 24.0509C64.5376 23.9588 64.7186 23.9951 64.8086 24.132L100.606 78.4916C100.65 78.5579 100.666 78.6394 100.651 78.718C100.635 78.7966 100.59 78.8656 100.525 78.9097Z" fill="white"/>
<path d="M44.7841 46.7124L30.6924 56.965C30.605 57.0282 30.4866 57.0035 30.4275 56.9097L28.9603 54.5728C28.9015 54.4787 28.9245 54.3512 29.0116 54.2876L43.1034 44.035C43.1907 43.9718 43.3091 43.9965 43.3683 44.0903L44.8345 46.4272C44.8934 46.521 44.8709 46.6484 44.7841 46.7124Z" fill="#D2D4D8"/>
<path d="M68.6886 39.5753L33.7339 62.9671C33.6436 63.0266 33.5219 63.0032 33.4606 62.9147L31.9499 60.6964C31.8891 60.6074 31.9123 60.4865 32.0019 60.4258L66.9575 37.035C67.0002 37.0051 67.0534 36.9937 67.1047 37.0034C67.1561 37.0131 67.2013 37.0431 67.2298 37.0864L68.7434 39.3047C68.8036 39.3945 68.7791 39.5155 68.6886 39.5753Z" fill="#D2D4D8"/>
<path d="M72.6753 45.5749L37.7226 68.9653C37.6798 68.9951 37.6266 69.0064 37.5752 68.9965C37.5239 68.9866 37.4788 68.9564 37.4503 68.9129L35.9369 66.6957C35.9064 66.6533 35.8949 66.6003 35.9049 66.5492C35.9149 66.4981 35.9456 66.4533 35.9898 66.4251L70.9424 43.0347C70.9852 43.0049 71.0384 42.9936 71.0898 43.0035C71.1412 43.0134 71.1863 43.0436 71.2147 43.0871L72.7282 45.3043C72.7888 45.3935 72.7651 45.5145 72.6753 45.5749Z" fill="#D2D4D8"/>
<path d="M77.6579 51.5736L42.7021 74.9653C42.6593 74.9951 42.6061 75.0064 42.5547 74.9965C42.5034 74.9866 42.4583 74.9564 42.4298 74.9129L40.9164 72.6956C40.8558 72.6064 40.8795 72.4854 40.9693 72.425L75.9212 49.0332C76.0113 48.9732 76.1335 48.9967 76.1944 49.0857L77.7069 51.3039C77.7374 51.3458 77.7494 51.3982 77.7401 51.449C77.7309 51.4999 77.7012 51.5448 77.6579 51.5736Z" fill="#D2D4D8"/>
<path d="M80.6453 56.5754L45.6929 79.9667C45.6027 80.0268 45.4806 80.0033 45.4196 79.9143L43.9061 77.6961C43.876 77.6537 43.8646 77.601 43.8746 77.5501C43.8846 77.4993 43.9151 77.4546 43.959 77.4265L78.9115 54.0352C78.9544 54.005 79.0079 53.9936 79.0595 54.0035C79.1111 54.0134 79.1564 54.0438 79.1848 54.0876L80.6983 56.3048C80.7583 56.3942 80.7347 56.5147 80.6453 56.5754Z" fill="#D2D4D8"/>
<path d="M84.6314 62.621L59.6096 79.9661C59.521 80.0272 59.4009 80.0034 59.3409 79.9128L57.8528 77.6536C57.8232 77.6105 57.812 77.5568 57.8218 77.505C57.8317 77.4532 57.8616 77.4077 57.9048 77.379L82.9267 60.0339C83.0153 59.9728 83.1354 59.9966 83.1953 60.0872L84.6835 62.3454C84.743 62.4363 84.7198 62.5595 84.6314 62.621Z" fill="#D2D4D8"/>
<path d="M88.6142 68.5715L53.6612 91.9664C53.5713 92.0266 53.4492 92.0037 53.3879 91.915L51.8744 89.6966C51.8138 89.6074 51.8375 89.4864 51.9273 89.426L86.8803 66.0329C86.9706 65.9734 87.0923 65.9968 87.1536 66.0853L88.6671 68.3037C88.6966 68.3459 88.7076 68.3982 88.6976 68.4486C88.6876 68.499 88.6576 68.5433 88.6142 68.5715Z" fill="#D2D4D8"/>
<path d="M92.6005 74.5729L57.6473 97.9667C57.5572 98.0268 57.435 98.0033 57.3741 97.9143L55.8615 95.6968C55.8313 95.6545 55.8198 95.6019 55.8296 95.551C55.8394 95.5002 55.8697 95.4554 55.9135 95.4271L90.8666 72.0333C90.9568 71.9732 91.0789 71.9967 91.1399 72.0857L92.6534 74.3032C92.7134 74.3922 92.6898 74.5125 92.6005 74.5729Z" fill="#D2D4D8"/>
<g filter="url(#filter2_d_358_6775)">
<path d="M66.0099 79.9947C65.8202 80.028 65.6393 79.9016 65.6047 79.7116L53.8383 14.0102C53.8051 13.8199 53.9312 13.6385 54.1206 13.6038L107.408 4.0052C107.597 3.97241 107.778 4.09806 107.813 4.28734L119.578 69.9897C119.612 70.1798 119.486 70.3614 119.297 70.3961L66.0099 79.9947Z" fill="black"/>
</g>
<path d="M66.0099 79.9947C65.8202 80.028 65.6393 79.9016 65.6047 79.7116L53.8383 14.0102C53.8051 13.8199 53.9312 13.6385 54.1206 13.6038L107.408 4.0052C107.597 3.97241 107.778 4.09806 107.813 4.28734L119.578 69.9897C119.612 70.1798 119.486 70.3614 119.297 70.3961L66.0099 79.9947Z" fill="white"/>
<path d="M72.0566 42.3406L78.4867 41.1816L81.7536 59.4437L75.3236 60.6027L72.0566 42.3406Z" fill="#D2D4D8"/>
<path d="M80.6172 45.8777L87.0472 44.7187L89.4335 58.0582L83.0035 59.2173L80.6172 45.8777Z" fill="#D2D4D8"/>
<path d="M88.9141 48.4564L95.3441 47.2974L97.0247 56.692L90.5947 57.851L88.9141 48.4564Z" fill="#D2D4D8"/>
<path d="M95.3154 40.8248L101.745 39.6658L104.549 55.3356L98.1186 56.4947L95.3154 40.8248Z" fill="#D2D4D8"/>
<path d="M87.5671 20.5032L61.4128 24.9979C61.3221 25.0119 61.2362 24.954 61.2196 24.8675L60.8088 22.6817C60.7942 22.5949 60.8547 22.5127 60.9451 22.4968L87.0993 18.0021C87.1901 17.9881 87.2759 18.046 87.2926 18.1325L87.7024 20.3174C87.7177 20.4042 87.6575 20.4868 87.5671 20.5032Z" fill="#D2D4D8"/>
<path d="M99.5239 23.4627L61.4043 29.9979C61.3148 30.0117 61.2301 29.9548 61.2137 29.8697L60.8087 27.7201C60.7947 27.6347 60.8542 27.5543 60.943 27.5381L99.0626 21.0019C99.152 20.9886 99.2363 21.0454 99.2532 21.1302L99.6573 23.2807C99.6718 23.3659 99.6126 23.4465 99.5239 23.4627Z" fill="#D2D4D8"/>
<path d="M106.5 26.5045L63.3974 33.998C63.3077 34.0116 63.2232 33.9539 63.2062 33.8676L62.801 31.6806C62.7865 31.5937 62.8463 31.5115 62.9357 31.4955L106.033 24.002C106.123 23.9884 106.207 24.0461 106.224 24.1324L106.63 26.3185C106.645 26.4044 106.588 26.4863 106.5 26.5045Z" fill="#D2D4D8"/>
<path d="M70.2302 65.4445L98.3253 60.3804C99.0387 60.2519 99.7209 60.7281 99.849 61.4442C99.9771 62.1603 99.5026 62.8451 98.7892 62.9737L70.6941 68.0378C69.9807 68.1664 69.2985 67.6901 69.1704 66.974C69.0423 66.2579 69.5168 65.5731 70.2302 65.4445Z" fill="#D2D4D8"/>
<path d="M113.473 66.5045L70.371 73.998C70.2814 74.0116 70.1968 73.9538 70.1798 73.8676L69.7746 71.6806C69.7601 71.5937 69.82 71.5115 69.9094 71.4956L113.007 64.002C113.096 63.9884 113.181 64.0461 113.198 64.1324L113.604 66.3185C113.619 66.4044 113.561 66.4863 113.473 66.5045Z" fill="#D2D4D8"/>
<path d="M86.5673 36.3745L64.4003 39.998C64.3098 40.0113 64.2242 39.9564 64.2076 39.8743L63.7979 37.8016C63.7839 37.7194 63.844 37.6418 63.9338 37.6262L86.1056 34.0019C86.196 33.989 86.2813 34.0438 86.2984 34.1255L86.707 36.1991C86.7215 36.2826 86.659 36.3611 86.5673 36.3745Z" fill="#D2D4D8"/>
<path d="M107.493 32.5704L88.3031 35.998C88.2136 36.0119 88.1291 35.9526 88.1122 35.8641L87.7074 33.6196C87.6924 33.5303 87.7524 33.4456 87.842 33.4297L107.032 30.0021C107.121 29.9877 107.206 30.0472 107.222 30.136L107.627 32.3796C107.642 32.4691 107.582 32.5541 107.493 32.5704Z" fill="#D2D4D8"/>
<path d="M90.1286 16.4882L103.139 14.1431C103.852 14.0146 104.535 14.4908 104.663 15.2069C104.791 15.9231 104.316 16.6078 103.603 16.7364L90.5926 19.0815C89.8792 19.2101 89.197 18.7338 89.0689 18.0177C88.9408 17.3016 89.4152 16.6168 90.1286 16.4882Z" fill="#D2D4D8"/>
<g opacity="0.2">
<path opacity="0.2" d="M141.242 94.984L89.9367 78.2591C89.8491 78.2306 89.7765 78.1687 89.7348 78.0871C89.6931 78.0055 89.6858 77.9108 89.7145 77.8238L110.437 15.2375C110.498 15.0567 110.694 14.9582 110.877 15.017L162.182 31.7419C162.365 31.8021 162.464 31.9969 162.405 32.1781L141.679 94.7616C141.619 94.9417 141.425 95.0408 141.242 94.984Z" fill="#3D3D3D"/>
<path opacity="0.2" d="M137.366 34.8066L129.931 47.5727L115.862 52.2699C117.97 58.4829 123.96 62.5677 130.561 62.2931C137.162 62.0185 142.787 57.4506 144.363 51.0844C145.939 44.7182 143.087 38.0844 137.366 34.8066Z" fill="#3D3D3D"/>
<path opacity="0.2" d="M136.584 32.3378C132.3 29.8818 127.063 29.7068 122.622 31.8712L129.154 45.0963L136.584 32.3378Z" fill="#3D3D3D"/>
<path opacity="0.2" d="M120.973 33.1284C114.271 36.3716 111.044 44.0531 113.44 51.0592L127.509 46.362L120.973 33.1284Z" fill="#3D3D3D"/>
<path opacity="0.2" d="M120.431 67.1257L101.959 61.1028C101.921 61.0912 101.89 61.0652 101.872 61.0305C101.854 60.9959 101.851 60.9555 101.863 60.9184L102.496 59.0046C102.508 58.9663 102.535 58.9345 102.571 58.9166C102.607 58.8986 102.649 58.8961 102.687 58.9095L121.16 64.9315C121.198 64.9431 121.23 64.9701 121.249 65.006C121.267 65.042 121.269 65.0837 121.255 65.1215L120.622 67.0354C120.609 67.0726 120.581 67.1031 120.545 67.1201C120.509 67.137 120.468 67.139 120.431 67.1257Z" fill="#3D3D3D"/>
<path opacity="0.2" d="M128.731 74.4779L100.573 65.2982C100.535 65.2865 100.504 65.2602 100.486 65.2254C100.468 65.1906 100.465 65.1501 100.477 65.1129L101.11 63.1991C101.122 63.1606 101.149 63.1286 101.185 63.1107C101.222 63.0927 101.264 63.0903 101.302 63.104L129.459 72.2837C129.537 72.3091 129.58 72.3917 129.555 72.469L128.921 74.3829C128.909 74.4211 128.882 74.4529 128.846 74.4708C128.81 74.4888 128.769 74.4914 128.731 74.4779Z" fill="#3D3D3D"/>
<path opacity="0.2" d="M117.846 76.2691L98.9786 70.1161C98.9011 70.0911 98.8584 70.0088 98.8829 69.9317L99.5169 68.0178C99.5288 67.9807 99.555 67.9499 99.5899 67.932C99.6248 67.9142 99.6654 67.9109 99.7027 67.9228L118.57 74.0759C118.648 74.1008 118.691 74.1838 118.666 74.2612L118.032 76.175C118.007 76.2516 117.924 76.2935 117.846 76.2691Z" fill="#3D3D3D"/>
<path opacity="0.2" d="M132.159 73.1658L140.583 75.9123C141.183 76.108 141.512 76.7551 141.317 77.3576C141.316 77.3601 141.315 77.3626 141.314 77.3651C141.113 77.9716 140.463 78.3017 139.857 78.1043L131.433 75.3577C130.833 75.162 130.504 74.515 130.699 73.9125C130.7 73.91 130.701 73.9075 130.701 73.905C130.902 73.2985 131.553 72.9683 132.159 73.1658Z" fill="#3D3D3D"/>
<path opacity="0.2" d="M124.069 65.8816L141.971 71.718C142.571 71.9137 142.899 72.5607 142.704 73.1632C142.704 73.1657 142.703 73.1682 142.702 73.1707C142.501 73.7773 141.85 74.1074 141.245 73.91L123.343 68.0735C122.743 67.8778 122.414 67.2308 122.609 66.6283C122.61 66.6258 122.611 66.6233 122.612 66.6208C122.813 66.0142 123.463 65.6841 124.069 65.8816Z" fill="#3D3D3D"/>
</g>
<g filter="url(#filter3_d_358_6775)">
<path d="M143.232 87.983L91.9282 71.2579C91.746 71.1978 91.647 71.0027 91.707 70.8217L112.432 8.23749C112.492 8.05665 112.689 7.95821 112.871 8.01702L164.175 24.7421C164.357 24.8022 164.456 24.9973 164.396 25.1783L143.672 87.7625C143.611 87.9434 143.415 88.0418 143.232 87.983Z" fill="black"/>
</g>
<path d="M143.232 87.983L91.9282 71.2579C91.746 71.1978 91.647 71.0027 91.707 70.8217L112.432 8.23749C112.492 8.05665 112.689 7.95821 112.871 8.01702L164.175 24.7421C164.357 24.8022 164.456 24.9973 164.396 25.1783L143.672 87.7625C143.611 87.9434 143.415 88.0418 143.232 87.983Z" fill="white"/>
<path d="M139.32 28L132.152 40.9974L118.588 45.7807C120.62 52.1069 126.395 56.2663 132.76 55.9867C139.125 55.7072 144.548 51.056 146.068 44.5738C147.587 38.0917 144.837 31.3372 139.32 28Z" fill="#D2D4D8"/>
<path opacity="0.490782" d="M138.513 26.1468C137.564 25.5963 136.562 25.1451 135.522 24.8003C131.582 23.4941 127.29 23.7956 123.569 25.6402L130.56 40L138.513 26.1468Z" fill="#3182CE"/>
<path d="M123.531 27C116.34 30.2551 112.878 37.9665 115.449 45L130.543 40.2846L123.531 27Z" fill="#D2D4D8"/>
<path d="M123.709 59.9914L104.748 54.1436C104.708 54.1321 104.675 54.1059 104.657 54.071C104.638 54.0362 104.636 53.9958 104.649 53.9591L105.3 52.1006C105.313 52.0634 105.341 52.0325 105.378 52.0151C105.415 51.9977 105.458 51.9952 105.497 52.0083L124.458 57.8561C124.498 57.8679 124.53 57.8941 124.549 57.9289C124.567 57.9636 124.57 58.0039 124.557 58.0406L123.906 59.8992C123.894 59.9365 123.866 59.9675 123.829 59.985C123.791 60.0024 123.748 60.0048 123.709 59.9914Z" fill="#D4E8E8"/>
<path d="M131.708 67.992L103.748 59.1307C103.71 59.1192 103.678 59.0931 103.66 59.0585C103.642 59.0239 103.64 58.9837 103.653 58.9472L104.283 57.1C104.295 57.063 104.322 57.0323 104.357 57.015C104.393 56.9977 104.435 56.9953 104.473 57.0082L132.433 65.8695C132.47 65.8807 132.501 65.9058 132.519 65.9393C132.537 65.9727 132.54 66.0117 132.528 66.0475L131.899 67.8948C131.889 67.9329 131.862 67.9651 131.826 67.9836C131.789 68.002 131.747 68.0051 131.708 67.992Z" fill="#D4E8E8"/>
<path d="M119.744 69.9916L100.76 64.1062C100.722 64.0952 100.691 64.0703 100.673 64.0371C100.655 64.004 100.651 63.9653 100.664 63.9299L101.301 62.0993C101.312 62.0625 101.34 62.032 101.376 62.0148C101.413 61.9976 101.455 61.9953 101.493 62.0084L120.477 67.8928C120.556 67.9167 120.599 67.996 120.574 68.0701L119.937 69.9007C119.925 69.9375 119.897 69.968 119.861 69.9852C119.824 70.0024 119.782 70.0047 119.744 69.9916Z" fill="#D4E8E8"/>
<path d="M134.62 66.6554L142.992 69.4168C143.6 69.6172 143.93 70.2743 143.731 70.8843C143.531 71.4944 142.876 71.8264 142.269 71.626L133.897 68.8646C133.289 68.6642 132.958 68.0071 133.158 67.3971C133.358 66.787 134.012 66.455 134.62 66.6554Z" fill="#D4E8E8"/>
<path d="M144.652 66.9926L124.669 60.285C124.632 60.2728 124.6 60.2456 124.582 60.2095C124.564 60.1733 124.56 60.1312 124.573 60.0927L125.211 58.106C125.237 58.0257 125.321 57.9815 125.4 58.0074L145.382 64.715C145.42 64.7272 145.452 64.7544 145.47 64.7906C145.488 64.8267 145.491 64.8688 145.479 64.9073L144.84 66.894C144.815 66.9743 144.73 67.0185 144.652 66.9926Z" fill="#D4E8E8"/>
<g filter="url(#filter4_d_358_6775)">
<path d="M144.49 56.5242V117.139C144.49 118.722 143.164 120 141.527 120H68.759C67.1219 120 65.7881 118.722 65.7881 117.139V47.8696C65.7881 46.2865 67.1238 45 68.759 45H85.1058C86.1221 44.9942 87.0721 45.5071 87.6293 46.3624L91.3987 52.2857C91.9524 53.1453 92.9042 53.6606 93.9222 53.6518H141.53C143.164 53.6586 144.49 54.9411 144.49 56.5242Z" fill="black"/>
</g>
<path d="M144.49 56.5242V117.139C144.49 118.722 143.164 120 141.527 120H68.759C67.1219 120 65.7881 118.722 65.7881 117.139V47.8696C65.7881 46.2865 67.1238 45 68.759 45H85.1058C86.1221 44.9942 87.0721 45.5071 87.6293 46.3624L91.3987 52.2857C91.9524 53.1453 92.9042 53.6606 93.9222 53.6518H141.53C143.164 53.6586 144.49 54.9411 144.49 56.5242Z" fill="url(#paint0_linear_358_6775)"/>
<path d="M144.49 56.5242V117.139C144.49 118.722 143.164 120 141.527 120H68.759C67.1219 120 65.7881 118.722 65.7881 117.139V47.8696C65.7881 46.2865 67.1238 45 68.759 45H85.1058C86.1221 44.9942 87.0721 45.5071 87.6293 46.3624L91.3987 52.2857C91.9524 53.1453 92.9042 53.6606 93.9222 53.6518H141.53C143.164 53.6586 144.49 54.9411 144.49 56.5242Z" fill="#2D3748"/>
<path d="M137.964 55H71.3167C69.9137 55 68.7764 56.1417 68.7764 57.55V116.45C68.7764 117.858 69.9137 119 71.3167 119H137.964C139.367 119 140.505 117.858 140.505 116.45V57.55C140.505 56.1417 139.367 55 137.964 55Z" fill="#EFEFEF"/>
<path d="M137.964 56H71.3167C69.9137 56 68.7764 57.1417 68.7764 58.55V117.45C68.7764 118.858 69.9137 120 71.3167 120H137.964C139.367 120 140.505 118.858 140.505 117.45V58.55C140.505 57.1417 139.367 56 137.964 56Z" fill="white"/>
<path opacity="0.2" d="M144.49 58V112.023L143.946 116.69C143.765 118.255 142.675 119.558 141.179 120H68.759C67.1219 120 65.7881 118.716 65.7881 117.126V67.4874H78.5257C80.0841 67.4881 81.4935 66.5515 82.111 65.105L84.1241 60.3902C84.7347 58.9402 86.143 57.9994 87.7018 58H144.49Z" fill="#3D3D3D"/>
<path d="M145.168 117.526C144.939 119.507 143.287 121 141.324 121H68.8569C66.8937 121 65.2412 119.507 65.0121 117.526L59.8371 72.8548C59.7079 71.7393 60.0542 70.6207 60.7889 69.7813C61.5235 68.9419 62.5763 68.4616 63.6819 68.4617H80.2501C81.7965 68.4618 83.1946 67.5269 83.8062 66.0837L85.801 61.3779C86.4125 59.9348 87.8106 59 89.357 59H147.589C148.695 58.9992 149.749 59.4791 150.484 60.3186C151.219 61.1581 151.566 62.2771 151.437 63.3932L145.168 117.526Z" fill="#2D3748"/>
<defs>
<filter id="filter0_d_358_6775" x="90.6182" y="26" width="113.721" height="122" filterUnits="userSpaceOnUse" color-interpolation-filters="sRGB">
<feFlood flood-opacity="0" result="BackgroundImageFix"/>
<feColorMatrix in="SourceAlpha" type="matrix" values="0 0 0 0 0 0 0 0 0 0 0 0 0 0 0 0 0 0 127 0" result="hardAlpha"/>
<feOffset dy="16"/>
<feGaussianBlur stdDeviation="10"/>
<feColorMatrix type="matrix" values="0 0 0 0 0 0 0 0 0 0 0 0 0 0 0 0 0 0 0.093482 0"/>
<feBlend mode="normal" in2="BackgroundImageFix" result="effect1_dropShadow_358_6775"/>
<feBlend mode="normal" in="SourceGraphic" in2="effect1_dropShadow_358_6775" result="shape"/>
</filter>
<filter id="filter1_d_358_6775" x="0.958008" y="20" width="119.698" height="125" filterUnits="userSpaceOnUse" color-interpolation-filters="sRGB">
<feFlood flood-opacity="0" result="BackgroundImageFix"/>
<feColorMatrix in="SourceAlpha" type="matrix" values="0 0 0 0 0 0 0 0 0 0 0 0 0 0 0 0 0 0 127 0" result="hardAlpha"/>
<feOffset dy="16"/>
<feGaussianBlur stdDeviation="10"/>
<feColorMatrix type="matrix" values="0 0 0 0 0 0 0 0 0 0 0 0 0 0 0 0 0 0 0.093482 0"/>
<feBlend mode="normal" in2="BackgroundImageFix" result="effect1_dropShadow_358_6775"/>
<feBlend mode="normal" in="SourceGraphic" in2="effect1_dropShadow_358_6775" result="shape"/>
</filter>
<filter id="filter2_d_358_6775" x="33.833" y="0" width="105.751" height="116" filterUnits="userSpaceOnUse" color-interpolation-filters="sRGB">
<feFlood flood-opacity="0" result="BackgroundImageFix"/>
<feColorMatrix in="SourceAlpha" type="matrix" values="0 0 0 0 0 0 0 0 0 0 0 0 0 0 0 0 0 0 127 0" result="hardAlpha"/>
<feOffset dy="16"/>
<feGaussianBlur stdDeviation="10"/>
<feColorMatrix type="matrix" values="0 0 0 0 0 0 0 0 0 0 0 0 0 0 0 0 0 0 0.093482 0"/>
<feBlend mode="normal" in2="BackgroundImageFix" result="effect1_dropShadow_358_6775"/>
<feBlend mode="normal" in="SourceGraphic" in2="effect1_dropShadow_358_6775" result="shape"/>
</filter>
<filter id="filter3_d_358_6775" x="71.6895" y="4" width="112.725" height="120" filterUnits="userSpaceOnUse" color-interpolation-filters="sRGB">
<feFlood flood-opacity="0" result="BackgroundImageFix"/>
<feColorMatrix in="SourceAlpha" type="matrix" values="0 0 0 0 0 0 0 0 0 0 0 0 0 0 0 0 0 0 127 0" result="hardAlpha"/>
<feOffset dy="16"/>
<feGaussianBlur stdDeviation="10"/>
<feColorMatrix type="matrix" values="0 0 0 0 0 0 0 0 0 0 0 0 0 0 0 0 0 0 0.093482 0"/>
<feBlend mode="normal" in2="BackgroundImageFix" result="effect1_dropShadow_358_6775"/>
<feBlend mode="normal" in="SourceGraphic" in2="effect1_dropShadow_358_6775" result="shape"/>
</filter>
<filter id="filter4_d_358_6775" x="45.7881" y="41" width="118.702" height="115" filterUnits="userSpaceOnUse" color-interpolation-filters="sRGB">
<feFlood flood-opacity="0" result="BackgroundImageFix"/>
<feColorMatrix in="SourceAlpha" type="matrix" values="0 0 0 0 0 0 0 0 0 0 0 0 0 0 0 0 0 0 127 0" result="hardAlpha"/>
<feOffset dy="16"/>
<feGaussianBlur stdDeviation="10"/>
<feColorMatrix type="matrix" values="0 0 0 0 0.258824 0 0 0 0 0.6 0 0 0 0 0.882353 0 0 0 0.3 0"/>
<feBlend mode="normal" in2="BackgroundImageFix" result="effect1_dropShadow_358_6775"/>
<feBlend mode="normal" in="SourceGraphic" in2="effect1_dropShadow_358_6775" result="shape"/>
</filter>
<linearGradient id="paint0_linear_358_6775" x1="105.139" y1="45" x2="105.139" y2="120" gradientUnits="userSpaceOnUse">
<stop stop-color="#7A62E4"/>
<stop offset="1" stop-color="#656EE4"/>
</linearGradient>
</defs>
</svg>
