<svg width="436" height="81" viewBox="0 0 436 81" fill="none" xmlns="http://www.w3.org/2000/svg">
<g clip-path="url(#clip0_281_4480)">
<path d="M435.575 32.2855H432.148V35.717H435.575V32.2855Z" fill="#006536"/>
<path d="M435.575 71.9199H432.148V75.3514H435.575V71.9199Z" fill="#006536"/>
<path d="M108.381 51.8247C106.817 50.5555 104.264 49.9209 100.723 49.9209H89.9277V50.5946C90.7231 50.5385 91.5216 50.6451 92.2745 50.908C92.6489 51.0792 92.9548 51.3718 93.1428 51.7385C93.3665 52.5648 93.4511 53.4227 93.3931 54.2768V70.3844C93.4522 71.2334 93.3676 72.0863 93.1428 72.9071C92.9588 73.2712 92.6587 73.5635 92.2902 73.7375C91.5396 74.0104 90.7396 74.1199 89.9434 74.0587V74.7403H102.545V74.0587C101.751 74.1179 100.953 74.0167 100.199 73.761C99.8183 73.592 99.5085 73.2956 99.3226 72.9227C99.0981 72.0992 99.0135 71.2438 99.0723 70.3922V63.5058C101.08 63.5762 103.089 63.4292 105.064 63.067C106.658 62.7487 108.106 61.9245 109.195 60.7167C110.196 59.5753 110.732 58.0989 110.697 56.5802C110.707 55.6617 110.503 54.7535 110.101 53.9279C109.699 53.1023 109.11 52.3821 108.381 51.8247ZM103.429 60.7794C102.987 61.236 102.45 61.5915 101.858 61.8213C101.265 62.0512 100.63 62.1501 99.9953 62.1112C99.7919 62.1112 99.4869 62.1112 99.0801 62.0721V51.3781H99.8624C100.519 51.3276 101.178 51.4159 101.798 51.6373C102.418 51.8586 102.984 52.2081 103.461 52.6629C104.269 53.5195 104.671 54.867 104.665 56.7055C104.634 58.5623 104.235 59.9254 103.429 60.8107V60.7794Z" fill="#006536"/>
<path d="M129.659 50.626C130.464 50.5817 131.268 50.7266 132.006 51.0491C132.4 51.2716 132.708 51.6189 132.882 52.0362C133.16 52.7869 133.28 53.5872 133.234 54.3866V64.5086C133.234 67.1201 133 68.969 132.53 70.0554C132.088 71.0813 131.35 71.9516 130.41 72.5546C129.379 73.1791 128.189 73.492 126.984 73.4555C125.966 73.4963 124.958 73.2493 124.074 72.7426C123.359 72.321 122.785 71.6967 122.424 70.9485C122.087 70.2277 121.923 68.7627 121.923 66.5377V54.4179C121.864 53.5262 121.94 52.6307 122.15 51.762C122.308 51.4036 122.584 51.1103 122.932 50.9316C123.56 50.6794 124.237 50.5749 124.911 50.626H125.553V49.9523H112.716V50.626C113.449 50.5648 114.186 50.6664 114.875 50.9238C115.232 51.1034 115.52 51.395 115.696 51.7542C115.911 52.6247 115.99 53.5232 115.931 54.4179V66.5691C115.854 68.2676 116.192 69.9592 116.917 71.4969C117.7 72.828 118.882 73.878 120.296 74.4975C121.872 75.1432 123.57 75.4347 125.271 75.3514C127.42 75.4694 129.551 74.9016 131.357 73.7297C132.658 72.8808 133.643 71.6248 134.157 70.1572C134.623 68.0864 134.817 65.9638 134.736 63.8427V54.4414C134.697 53.7307 134.777 53.0186 134.971 52.3339C135.154 51.8107 135.51 51.3658 135.98 51.0726C136.509 50.7736 137.11 50.6271 137.717 50.6495H138.225V49.9758H129.659V50.626Z" fill="#006536"/>
<path d="M160.432 63.5763C159.483 62.7929 157.832 62.127 155.48 61.5786C157.665 61.0563 159.188 60.3146 160.049 59.3536C160.882 58.5025 161.349 57.3573 161.347 56.165C161.346 55.0139 160.988 53.8916 160.322 52.9529C159.636 51.9359 158.664 51.1453 157.53 50.6809C156.351 50.1586 154.341 49.8975 151.499 49.8975H139.647V50.5712C140.443 50.5164 141.241 50.623 141.994 50.8846C142.369 51.0558 142.675 51.3483 142.863 51.715C143.086 52.5413 143.171 53.3992 143.113 54.2534V70.3609C143.172 71.21 143.087 72.0629 142.863 72.8836C142.676 73.2483 142.373 73.5405 142.002 73.7141C141.252 73.9884 140.451 74.098 139.655 74.0353V74.7169H152.25C155.762 74.7169 158.429 73.9334 160.275 72.4998C160.984 71.9565 161.556 71.255 161.946 70.4511C162.336 69.6472 162.532 68.7632 162.521 67.8696C162.534 67.04 162.351 66.2189 161.989 65.473C161.626 64.7271 161.092 64.0773 160.432 63.5763ZM148.831 51.3076C150.157 51.2204 151.488 51.4015 152.742 51.8404C153.509 52.1738 154.156 52.7342 154.596 53.4464C155.026 54.2825 155.25 55.2091 155.25 56.1493C155.25 57.0895 155.026 58.0162 154.596 58.8522C154.139 59.5736 153.481 60.1454 152.703 60.4974C151.483 60.9572 150.18 61.1574 148.878 61.085L148.831 51.3076ZM155.386 70.8467C154.967 71.6551 154.308 72.3144 153.501 72.7348C152.668 73.1696 151.742 73.3929 150.802 73.385C150.532 73.4211 150.257 73.3943 149.998 73.3067C149.74 73.2191 149.505 73.073 149.312 72.8797C149.119 72.6865 148.973 72.4513 148.886 72.1925C148.798 71.9337 148.772 71.6581 148.808 71.3873V70.4706V62.5422C150.228 62.4698 151.651 62.6502 153.008 63.0749C153.946 63.4429 154.728 64.1237 155.222 65.0022C155.757 65.9583 156.027 67.0402 156.004 68.136C156.041 69.0848 155.84 70.0277 155.418 70.878L155.386 70.8467Z" fill="#006536"/>
<path d="M186.583 69.7889L177.641 49.4742H177.297L168.434 69.2796C167.913 70.6246 167.199 71.8862 166.314 73.0245C165.73 73.634 164.954 74.0239 164.116 74.1291V74.8107H172.361V74.1291C171.531 74.1289 170.707 73.9803 169.928 73.6904C169.655 73.5354 169.431 73.3059 169.283 73.0285C169.135 72.7511 169.068 72.4373 169.091 72.1235C169.133 71.4314 169.306 70.7535 169.6 70.1257L170.648 67.7128H179.394L180.716 70.8465C181.052 71.63 181.24 72.1079 181.263 72.2175C181.332 72.4356 181.369 72.6626 181.373 72.8913C181.382 73.0553 181.349 73.2189 181.278 73.3669C181.207 73.5148 181.1 73.6423 180.966 73.7374C180.341 74.0576 179.639 74.1961 178.94 74.137H178.424V74.8186H190.416V74.137C189.772 74.1191 189.153 73.8876 188.655 73.4789C187.759 72.3763 187.058 71.1283 186.583 69.7889ZM171.282 66.3496L175.083 57.8022L178.776 66.3496H171.282Z" fill="#006536"/>
<path d="M211.92 70.4862C211.366 71.4044 210.581 72.1609 209.643 72.6799C208.62 73.1804 207.488 73.4199 206.35 73.3771H204.285C203.546 73.4168 202.804 73.3615 202.079 73.2126C201.89 73.1474 201.716 73.0444 201.568 72.9097C201.42 72.775 201.301 72.6115 201.219 72.4291C201.022 71.6356 200.948 70.8165 200.999 70.0005V54.175C200.944 53.4012 201.012 52.6236 201.203 51.8717C201.345 51.5016 201.606 51.1898 201.946 50.9864C202.482 50.71 203.08 50.5777 203.683 50.6025H204.762V49.9287H191.55V50.6025H192.371C192.946 50.5776 193.517 50.7018 194.03 50.9629C194.37 51.1514 194.644 51.4417 194.812 51.7933C194.988 52.5635 195.054 53.3549 195.007 54.1436V70.4705C195.06 71.2438 194.994 72.0205 194.812 72.7739C194.678 73.1444 194.418 73.4554 194.077 73.6513C193.542 73.9312 192.943 74.0637 192.34 74.0352H191.519V74.7168H213.523L214.454 66.0049H213.672C213.291 67.5705 212.701 69.0777 211.92 70.4862Z" fill="#006536"/>
<path d="M216.566 50.626H217.388C217.962 50.6004 218.534 50.7246 219.046 50.9864C219.389 51.1727 219.663 51.4637 219.828 51.8168C220.005 52.587 220.071 53.3784 220.024 54.1671V70.494C220.076 71.2673 220.01 72.0441 219.828 72.7974C219.695 73.1679 219.434 73.4789 219.093 73.6748C218.558 73.9547 217.959 74.0872 217.357 74.0587H216.535V74.7403H229.497V74.0587H228.668C228.097 74.0857 227.528 73.9642 227.017 73.7062C226.662 73.52 226.375 73.2267 226.196 72.8679C226.006 72.0999 225.934 71.3072 225.985 70.5175V54.175C225.933 53.4013 226.002 52.6243 226.188 51.8717C226.33 51.5016 226.592 51.1898 226.931 50.9864C227.468 50.711 228.066 50.5788 228.668 50.6025H229.497V49.9287H216.566V50.626Z" fill="#006536"/>
<path d="M261.343 63.5763C260.389 62.7929 258.738 62.127 256.391 61.5786C258.566 61.0563 260.089 60.3146 260.96 59.3536C261.79 58.5002 262.256 57.3565 262.258 56.165C262.253 55.0145 261.895 53.8934 261.234 52.9529C260.543 51.9369 259.569 51.1468 258.433 50.6809C257.254 50.1586 255.244 49.8975 252.402 49.8975H240.527V50.5712C241.323 50.5164 242.121 50.623 242.874 50.8846C243.249 51.0558 243.554 51.3483 243.742 51.715C243.962 52.5421 244.044 53.3997 243.985 54.2534V70.3609C244.045 71.2095 243.963 72.0622 243.742 72.8836C243.555 73.2483 243.253 73.5405 242.882 73.7141C242.132 73.9877 241.331 74.0972 240.535 74.0353V74.7169H253.129C256.634 74.7169 259.307 73.9778 261.148 72.4998C261.857 71.9578 262.43 71.2565 262.82 70.4523C263.21 69.6481 263.406 68.7635 263.393 67.8696C263.409 67.0435 263.232 66.2249 262.876 65.4795C262.521 64.734 261.995 64.0822 261.343 63.5763ZM249.734 51.3076C251.061 51.2208 252.391 51.402 253.646 51.8404C254.41 52.178 255.056 52.7375 255.5 53.4464C255.929 54.2825 256.153 55.2091 256.153 56.1493C256.153 57.0895 255.929 58.0162 255.5 58.8522C255.04 59.5718 254.383 60.1431 253.607 60.4974C252.384 60.9583 251.078 61.1585 249.774 61.085L249.734 51.3076ZM256.298 70.8467C255.874 71.6553 255.214 72.3144 254.404 72.7348C253.574 73.169 252.65 73.3923 251.714 73.385C251.169 73.4222 250.632 73.242 250.219 72.8836C250.04 72.6803 249.904 72.4432 249.818 72.1862C249.732 71.9292 249.698 71.6575 249.719 71.3873V70.4706V62.5422C251.142 62.4694 252.567 62.6498 253.927 63.0749C254.864 63.4411 255.644 64.1226 256.133 65.0022C256.672 65.9569 256.942 67.0398 256.916 68.136C256.939 69.0871 256.727 70.0293 256.298 70.878V70.8467Z" fill="#006536"/>
<path d="M287.455 69.7889L278.552 49.4742H278.2L269.338 69.2796C268.823 70.6276 268.108 71.8901 267.218 73.0245C266.636 73.6339 265.863 74.0241 265.027 74.1291V74.8107H273.272V74.1291C272.442 74.1289 271.618 73.9803 270.839 73.6904C270.564 73.5372 270.338 73.3083 270.188 73.0306C270.039 72.753 269.971 72.4382 269.995 72.1235C270.036 71.4304 270.211 70.7519 270.511 70.1257L271.551 67.7128H280.273L281.588 70.8465C281.932 71.63 282.112 72.1079 282.135 72.2175C282.208 72.4346 282.245 72.6622 282.245 72.8913C282.253 73.0544 282.221 73.217 282.152 73.3647C282.082 73.5124 281.977 73.6404 281.846 73.7374C281.221 74.0568 280.519 74.1952 279.82 74.137H279.335V74.8186H291.319V74.137C290.678 74.1174 290.062 73.886 289.567 73.4789C288.656 72.3796 287.942 71.1313 287.455 69.7889ZM272.161 66.3496L275.963 57.8022L279.655 66.3496H272.161Z" fill="#006536"/>
<path d="M309.694 50.626C310.23 50.5609 310.774 50.6195 311.284 50.7974C311.794 50.9753 312.256 51.2677 312.635 51.6523C313.066 52.1773 313.277 53.2192 313.277 54.6764V65.3469L301.05 49.9523H292.266V50.626C292.861 50.6152 293.451 50.7356 293.994 50.9786C294.544 51.3107 295.018 51.7535 295.387 52.2791L295.919 52.9372V70.4471C296.03 70.95 296.013 71.4731 295.869 71.9676C295.725 72.4621 295.458 72.912 295.093 73.2756C294.729 73.6391 294.278 73.9044 293.784 74.0468C293.29 74.1892 292.767 74.2041 292.266 74.0901V74.7717H301.05V74.0901H300.456C299.643 74.0901 298.854 73.8139 298.219 73.3067C297.569 72.8131 297.241 71.8495 297.241 70.4158V54.6764L314.012 75.3279H314.63V54.6764C314.583 53.837 314.687 52.9959 314.935 52.1929C315.091 51.7624 315.386 51.3959 315.772 51.151C316.44 50.8538 317.155 50.6761 317.884 50.626V49.9523H309.694V50.626Z" fill="#006536"/>
<path d="M343.065 70.3765L334.351 59.4475L341.602 53.6266C342.678 52.7038 343.818 51.8582 345.013 51.0961C345.655 50.8102 346.345 50.6506 347.047 50.626V49.9522H337.386V50.626C338.058 50.6061 338.729 50.6933 339.373 50.8845C339.596 50.9704 339.79 51.1201 339.929 51.3152C340.068 51.5102 340.147 51.7419 340.155 51.9814C340.155 52.6081 339.514 53.4385 338.231 54.4727L329.039 61.9232V54.175C328.986 53.3848 329.06 52.5912 329.259 51.8247C329.414 51.4566 329.69 51.1526 330.041 50.9629C330.64 50.6853 331.298 50.5589 331.957 50.5946V49.9209H319.598V50.5946H320.427C320.999 50.5697 321.568 50.6939 322.077 50.955C322.42 51.1414 322.694 51.4323 322.86 51.7855C323.04 52.555 323.109 53.3467 323.063 54.1358V70.4627C323.115 71.2364 323.046 72.0134 322.86 72.7661C322.726 73.1366 322.466 73.4476 322.124 73.6435C321.592 73.9227 320.996 74.0552 320.396 74.0274H319.566V74.709H332.082V74.0274C331.403 74.0718 330.723 73.9565 330.096 73.6905C329.738 73.5258 329.442 73.2514 329.251 72.9071C329.053 72.119 328.979 71.3049 329.032 70.4941V63.7173L329.947 62.9338L335.634 70.0945C336.752 71.5047 337.308 72.4448 337.308 72.9854C337.311 73.1184 337.281 73.2501 337.219 73.3679C337.157 73.4858 337.067 73.586 336.956 73.6592C336.473 73.9124 335.936 74.0442 335.391 74.043V74.7247H348.291V74.043C347.57 74.0419 346.863 73.8413 346.249 73.4633C345.032 72.6084 343.958 71.5667 343.065 70.3765Z" fill="#006536"/>
<path d="M376.639 51.8247C375.074 50.5555 372.522 49.9209 368.981 49.9209H358.178V50.5946C358.973 50.5398 359.771 50.6464 360.524 50.908C360.899 51.0792 361.205 51.3718 361.393 51.7385C361.612 52.5655 361.694 53.4231 361.635 54.2768V70.3844C361.695 71.2329 361.613 72.0856 361.393 72.9071C361.206 73.2718 360.903 73.5639 360.532 73.7375C359.782 74.0111 358.982 74.1207 358.186 74.0587V74.7403H370.78V74.0587C369.985 74.1148 369.187 74.0109 368.433 73.7532C368.053 73.5842 367.743 73.2878 367.557 72.9149C367.333 72.0914 367.248 71.236 367.307 70.3844V63.4979C369.317 63.5683 371.328 63.4212 373.307 63.0592C374.898 62.7371 376.346 61.9136 377.437 60.7089C378.432 59.5644 378.964 58.0894 378.931 56.5723C378.942 55.6573 378.74 54.7523 378.342 53.9285C377.945 53.1047 377.362 52.3845 376.639 51.8247ZM371.679 60.7794C371.237 61.2369 370.701 61.5929 370.108 61.8228C369.515 62.0527 368.88 62.1511 368.245 62.1112C368.042 62.1112 367.737 62.1112 367.33 62.0721V51.3781H368.112C368.769 51.3276 369.428 51.4159 370.048 51.6373C370.668 51.8586 371.234 52.2081 371.711 52.6629C372.519 53.5195 372.923 54.867 372.923 56.7055C372.892 58.5623 372.485 59.9254 371.679 60.8107V60.7794Z" fill="#006536"/>
<path d="M401.146 70.4862C400.597 71.4055 399.814 72.1625 398.878 72.6799C397.854 73.1789 396.723 73.4183 395.584 73.3771H393.543C392.801 73.4166 392.057 73.3613 391.329 73.2126C391.141 73.1478 390.968 73.0448 390.821 72.91C390.674 72.7751 390.557 72.6115 390.476 72.4291C390.28 71.6356 390.206 70.8165 390.257 70.0005V54.175C390.205 53.4017 390.271 52.625 390.453 51.8717C390.608 51.4975 390.883 51.1859 391.235 50.9864C391.771 50.71 392.369 50.5777 392.972 50.6025H394.051V49.9287H380.784V50.6025H381.566C382.139 50.5768 382.707 50.701 383.217 50.9629C383.559 51.1492 383.833 51.4402 383.999 51.7933C384.18 52.5628 384.248 53.3545 384.203 54.1436V70.4705C384.254 71.2442 384.185 72.0212 383.999 72.7739C383.866 73.1422 383.609 73.4525 383.272 73.6513C382.737 73.9312 382.138 74.0637 381.535 74.0352H380.753V74.7168H402.758L403.712 66.0598H402.93C402.538 67.6092 401.938 69.0983 401.146 70.4862Z" fill="#006536"/>
<path d="M428.745 51.2841C428.614 51.4192 428.457 51.5264 428.284 51.5991C428.111 51.6718 427.924 51.7086 427.736 51.7072C427.005 51.5739 426.293 51.3502 425.616 51.0413C423.874 50.3382 422.018 49.9611 420.14 49.9288C417.799 49.9225 415.495 50.5129 413.444 51.6445C411.349 52.7772 409.607 54.4659 408.407 56.5253C407.191 58.5076 406.547 60.7879 406.545 63.1141C406.544 65.2969 407.122 67.4408 408.219 69.3268C409.322 71.2605 410.979 72.8187 412.975 73.8002C415.164 74.8754 417.578 75.4126 420.015 75.3671C421.819 75.4047 423.612 75.0797 425.288 74.4113C426.923 73.6767 428.398 72.628 429.629 71.3246V69.2249C428.485 70.6172 427.095 71.7881 425.53 72.6799C424.204 73.3573 422.732 73.7014 421.243 73.6827C419.585 73.7577 417.95 73.2751 416.597 72.3117C415.318 71.2746 414.398 69.86 413.968 68.2691C413.385 66.3473 413.1 64.3471 413.124 62.3385C413.094 60.2746 413.488 58.2266 414.281 56.3216C414.868 54.9257 415.853 53.7346 417.113 52.898C418.366 52.0408 419.851 51.5871 421.369 51.5975C423.178 51.5797 424.935 52.198 426.336 53.3446C427.875 54.6439 428.933 56.4236 429.34 58.3978H430.052V49.9523H429.34C429.296 50.4502 429.086 50.919 428.745 51.2841Z" fill="#006536"/>
<path d="M117.103 38.1771H103.296C103.296 38.1771 103.429 43.9041 97.2418 39.7832V36.1558H111.049V12.1198H126.396V15.2536H114.287V31.2045C114.287 31.2045 114.412 35.6936 119.622 36.0618H133.828V12.1198H137.935V35.9443H144.693V12.1433H168.216V15.3789H148.495V32.0741C148.495 32.0741 148.628 35.3019 152.852 35.5682H159.204V33.9543C159.204 33.9543 155.535 34.5654 155.402 31.8234V17.5177H159.196V26.3628H165.673V18.0192H168.497V35.9678H176.515V11.8691H179.895V35.8424H186.794V9.20544C186.794 9.20544 187.514 4.46561 180.466 4.08173H164.961V7.08231H176.945C176.945 7.08231 180.747 7.08231 179.895 9.20544L103.382 9.15842V11.2816C103.382 11.2816 101.403 11.6184 98.8688 9.27595H89.9434V24.2318H98.1101L102.342 21.3566L103.328 21.482V33.6958H92.3136C92.3136 33.6958 90.6239 41.9141 94.6994 42.3137H111.15V40.0652H117.064L117.103 38.1771ZM126.365 33.6566C126.365 33.6566 124.801 35.153 121.711 32.2543V19.3588C121.711 19.3588 121.406 16.7422 126.365 17.4864V33.6566ZM103.148 17.4786C99.5416 20.9257 97.1166 20.5497 97.1166 20.5497V11.9318C99.2574 11.8224 101.375 12.4166 103.148 13.624V17.4786Z" fill="#006536"/>
<path d="M253.074 28.8072V35.7093H259.097V29.2616C258.996 25.3444 254.028 24.7725 254.028 24.7725H244.133L244.039 26.8251H250.79C253.293 26.8407 253.074 28.8072 253.074 28.8072Z" fill="#006536"/>
<path d="M247.795 21.4898H259.427V14.384C259.427 9.98888 254.444 9.14276 254.444 9.14276H246.402C245.85 9.20132 245.334 9.44411 244.937 9.83206C244.54 10.22 244.284 10.7306 244.212 11.2816V18.6694C244.728 21.3801 247.795 21.4898 247.795 21.4898ZM249.594 12.5116H253.92V17.9251C253.92 17.9251 252.77 20.6358 249.5 17.5491L249.594 12.5116Z" fill="#006536"/>
<path d="M267.648 35.8659H280.735V19.1865C280.716 19.0129 280.732 18.8371 280.783 18.6702C280.835 18.5033 280.92 18.3488 281.034 18.2164C281.148 18.084 281.288 17.9766 281.445 17.9009C281.602 17.8251 281.773 17.7827 281.947 17.7763H284.811V27.5849C285.014 29.1518 282.902 29.3634 282.902 29.3634V31.0478H287.877C291.358 30.6796 291.155 27.867 291.155 27.867V15.0029H280.899V12.1433H291.155V9.15057H261.961V12.1433H273.906V15.0029H261.961V17.7763V30.5699C261.953 35.0668 267.648 35.8659 267.648 35.8659ZM269.212 17.7919H273.859V33.3981H270.824C270.422 33.3598 270.046 33.1824 269.76 32.8965C269.475 32.6105 269.298 32.2338 269.259 31.8312L269.212 17.7919Z" fill="#006536"/>
<path d="M241.896 35.6152V9.14276H200.828V12.1355H213.727V14.2978H200.844V31.3925C200.844 35.4821 206.539 35.8894 206.539 35.8894H222.379V30.7736V12.1512H225.586C225.512 12.9917 225.17 13.7858 224.609 14.4153C223.044 15.9039 225.547 16.7656 225.547 16.7656V33.3041C223.858 34.5262 224.382 35.5526 224.382 35.5526C232.619 37.3232 231.985 31.9957 231.985 31.9957V19.2021C231.876 16.1702 230.421 15.3711 230.421 15.3711C229.146 13.8042 230.718 12.5116 231.203 12.1747H235.185V35.6779H241.935L241.896 35.6152ZM213.9 33.2649H210.771C210.771 33.2649 209.722 33.4451 209.292 31.0164L209.519 17.5647H213.939L213.9 33.2649Z" fill="#006536"/>
<path d="M306.98 35.8581H313.887V12.1512V9.15843C313.887 6.92562 316.844 7.07449 316.844 7.07449H328.828V4.03473H313.324C306.284 4.41862 306.996 9.15843 306.996 9.15843L306.98 35.8581Z" fill="#006536"/>
<path d="M316.648 9.2446V24.2005H324.815L329.055 21.3253L330.041 21.4506V33.6645V36.1558H337.793V12.1355H339.936V9.14276H330.158V11.2659C330.158 11.2659 328.179 11.6028 325.652 9.26027L316.648 9.2446ZM329.845 13.6397V17.4707C326.247 20.9257 323.814 20.5497 323.814 20.5497V11.9318C325.956 11.8264 328.075 12.4262 329.845 13.6397Z" fill="#006536"/>
<path d="M347.507 23.2369H353.179V21.6152C353.179 21.6152 350.198 22.2341 350.05 19.4921V11.2581H355.134V34.1659H348.227C347.825 34.1276 347.449 33.9503 347.163 33.6643C346.878 33.3783 346.701 33.0016 346.663 32.599V27.8984H339.388V31.3534C339.388 35.8346 345.075 36.6337 345.075 36.6337H362.018V9.13496H346.248C345.843 9.13393 345.441 9.21301 345.066 9.36767C344.691 9.52234 344.351 9.74955 344.064 10.0363C343.777 10.323 343.549 10.6636 343.393 11.0387C343.238 11.4137 343.158 11.8157 343.158 12.2217V19.7427C343.158 19.7427 343.283 22.9705 347.507 23.2369Z" fill="#006536"/>
<path d="M404.174 7.05881H416.158V4.03473H400.654C393.989 4.39511 394.271 8.66486 394.326 9.11143H364.178V12.1042H383.906V15.3398H364.186V32.0428C364.186 32.0428 364.326 35.2627 368.55 35.5291H374.902V33.9152C374.902 33.9152 371.241 34.5263 371.093 31.7842V17.4707H374.887V26.308H381.364V17.9957H384.156V35.9443H392.175V11.8535H394.326V35.8581H401.225V12.1512H404.589C405.371 12.6134 407.882 14.2821 408.148 16.5776V27.2716C408.148 27.2716 407.843 30.1703 406.474 30.0763H402.977V32.505H409.321C409.321 32.505 415.963 32.787 415.963 26.4255V22.8373C418.044 22.759 419.725 24.3024 420.907 25.9084V35.7093H428.401V12.1277H430.012V9.13493H401.217C400.451 7.08231 404.174 7.05881 404.174 7.05881ZM412.591 12.1355H420.922V20.1423C419.371 19.4546 417.666 19.1845 415.978 19.3588V18.0583C415.978 18.0583 416.409 16.4914 412.177 12.6369L412.591 12.1355Z" fill="#006536"/>
<path d="M40.6462 26.8719C40.4806 26.9182 40.3096 26.942 40.1377 26.9424V27.2088C40.3585 27.2201 40.5788 27.1771 40.7791 27.0835L41.2172 26.4332C41.2882 26.3504 41.3369 26.2508 41.3588 26.1439C41.3807 26.037 41.375 25.9262 41.3424 25.8221C41.2834 25.7221 41.203 25.6365 41.1069 25.5715C41.0109 25.5064 40.9016 25.4636 40.787 25.446L40.7479 25.7046C40.8261 25.7046 41.0529 25.7829 41.1155 25.9318C41.1273 25.9932 41.1242 26.0565 41.1065 26.1165C41.0888 26.1765 41.057 26.2314 41.0138 26.2765L40.6462 26.8719Z" fill="#006536"/>
<path d="M40.123 26.4568H40.3655H40.655H40.7489V26.3471C40.7602 26.2688 40.7437 26.189 40.7023 26.1217C40.6608 26.0544 40.597 26.0038 40.522 25.9789H40.4281L40.3734 26.065L40.2247 26.3079L40.123 26.4568Z" fill="#006536"/>
<path d="M40.2078 24.7332L40.3643 24.5373C39.8738 24.372 39.3543 24.3106 38.8389 24.3571V24.6235C39.2981 24.5843 39.7606 24.6214 40.2078 24.7332Z" fill="#006536"/>
<path d="M40.0201 25.1876C40.0201 25.1876 40.3565 24.6627 38.8076 24.9604L38.8624 25.6968C38.8624 25.6968 39.7541 25.7909 40.0201 25.1876Z" fill="#006536"/>
<path d="M57.6058 37.5034C56.584 37.1078 55.4516 37.1078 54.4298 37.5034C53.6696 37.7324 52.8678 37.7886 52.0831 37.6679L52.0283 37.9342C52.8723 38.0771 53.7381 38.018 54.555 37.7619C55.5129 37.3998 56.5697 37.3998 57.5276 37.7619H57.5745L57.7153 37.5425C57.6809 37.5138 57.6409 37.4925 57.598 37.4799L57.6058 37.5034Z" fill="#006536"/>
<path d="M54.8819 38.8116C54.1329 39.0902 53.3293 39.1895 52.5352 39.1015V39.3679C53.364 39.4654 54.204 39.3606 54.9836 39.0623C55.216 38.9726 55.4725 38.9673 55.7083 39.0475C55.9442 39.1277 56.1445 39.2882 56.2743 39.5011L56.4934 39.3522C56.3278 39.0902 56.0772 38.8933 55.7836 38.7949C55.4901 38.6964 55.1716 38.7023 54.8819 38.8116Z" fill="#006536"/>
<path d="M29.3967 51.8951C29.3967 51.8951 27.003 52.3339 28.0591 54.1436L28.9978 54.8252L36.4526 53.9008C36.4526 53.9008 37.055 53.3524 36.4526 51.7541C35.525 51.4369 34.6314 51.0275 33.7852 50.532L32.1424 50.6338C31.496 50.6244 30.8505 50.6875 30.2181 50.8218L30.1633 49.7407C30.4722 49.4681 30.8472 49.2817 31.2507 49.2001C31.2507 49.2001 31.8686 49.1218 31.9469 48.2757C31.9469 48.2757 32.0564 47.8448 31.6105 47.9231C31.6105 47.9231 31.6731 48.2835 30.6874 48.1738C30.6874 48.1738 28.2781 48.1738 29.2716 49.9052L29.3967 51.8951ZM28.9665 52.5767L29.0447 52.8666L28.7005 52.8039V52.6159L28.9665 52.5767ZM36.304 53.4777L29.0134 54.3082L28.2937 53.6657C28.2937 53.6657 28.0043 52.9998 28.4658 53.0938C28.6323 53.2624 28.81 53.4194 28.9978 53.5639L36.2023 52.8666L36.304 53.4777ZM31.0394 51.8638L32.6978 51.762L32.8465 52.7726L31.1568 52.898L31.0394 51.8638ZM35.5609 51.7776L35.6313 52.4592L34.9351 52.5767L34.8725 51.7149L35.5609 51.7776ZM34.5674 52.5611L33.2923 52.6864L33.2376 51.7463L34.4814 51.6836L34.5674 52.5611ZM30.6562 51.0334L31.6887 50.9393L31.8452 51.049H32.9247L33.2063 50.8923L33.6678 50.7905C33.8986 50.9123 34.1185 51.0538 34.3249 51.2136L30.4136 51.6444V51.3546C30.3511 51.0882 30.6562 51.0412 30.6562 51.0412V51.0334ZM30.7187 52.1302V52.9136L29.3811 53.0311L29.3185 52.4827C29.3185 52.4827 29.5845 52.3339 29.5375 52.185L30.7187 52.1302ZM29.6862 50.0541H29.9991L30.0616 51.1274L29.7487 51.1666L29.6862 50.0541ZM29.6862 48.6987L31.3602 48.4402V48.777C30.8267 48.8857 30.3226 49.1075 29.8817 49.4273C29.7096 49.6388 29.4749 49.4273 29.4749 49.4273C29.4064 49.3045 29.3868 49.1603 29.4202 49.0236C29.4536 48.887 29.5375 48.7681 29.6549 48.6909L29.6862 48.6987Z" fill="#006536"/>
<path d="M37.4698 47.9074C37.6731 47.9074 37.8218 47.6567 37.8061 47.3747C37.8133 47.2573 37.7763 47.1416 37.7024 47.0502C37.6286 46.9588 37.5232 46.8985 37.4072 46.8811C37.2926 46.9124 37.1934 46.9847 37.1286 47.0844C37.0637 47.184 37.0376 47.304 37.0552 47.4217C37.0786 47.6645 37.2664 47.9074 37.4698 47.9074Z" fill="#006536"/>
<path d="M40.3952 13.295L32.4632 29.3869L14.7217 31.9644L27.5584 44.4995L24.5233 62.1818L40.3952 53.8381L56.2515 62.1818L53.2633 44.4917L66.1 31.9566L48.3585 29.3791L40.3952 13.295ZM51.9413 43.6691H48.3429C48.6915 43.3376 48.9592 42.9301 49.1252 42.4782C49.1252 42.4782 49.4459 41.1385 48.8279 41.0524C48.6167 41.5124 48.379 41.9597 48.116 42.392C48.0441 42.8307 47.9207 43.2594 47.7484 43.6691H46.9661C46.9114 43.434 46.8723 42.8386 47.6936 41.9298C47.6936 41.9298 48.3272 41.5381 47.5998 39.65L47.5528 39.6892C47.5495 39.9115 47.4989 40.1306 47.4045 40.3319C47.3101 40.5331 47.174 40.712 47.0052 40.8565C46.5905 41.7271 46.4125 42.6918 46.489 43.6534H45.6676L45.5346 42.7759C45.7434 41.6342 46.2882 40.5811 47.0991 39.7518C47.2854 39.5418 47.4159 39.2882 47.4788 39.0144C47.5417 38.7406 47.5349 38.4554 47.459 38.185C47.6412 38.068 47.7792 37.8934 47.8509 37.6888C47.9227 37.4842 47.924 37.2615 47.8547 37.0561C47.7855 36.8507 47.6496 36.6744 47.4687 36.5553C47.2878 36.4361 47.0724 36.381 46.8566 36.3987C46.8566 36.3987 46.9192 35.8973 47.193 35.725L47.0991 34.5655C47.0991 34.5655 46.5515 34.3931 47.0991 33.9152C47.1247 33.6948 47.0969 33.4715 47.0179 33.2641C46.9389 33.0568 46.8111 32.8717 46.6454 32.7244C46.6454 32.7244 46.2621 32.458 45.957 33.2806C45.957 33.2806 45.7615 34.0641 46.0352 34.2364C46.0352 34.2364 46.2386 34.9023 45.957 34.871L46.0744 35.9208C46.0744 35.9208 46.6454 35.9757 46.0744 36.242L45.4407 36.6886C45.3584 36.1183 45.2141 35.5588 45.0105 35.0199C45.0105 35.0199 44.5803 34.589 44.283 35.4664C44.283 35.4664 43.931 35.6544 43.8684 35.3881C44.0271 35.0401 44.0679 34.6497 43.9846 34.2763C43.9013 33.9029 43.6984 33.567 43.4069 33.3198C43.4069 33.3198 42.8202 32.4423 42.6246 33.6018C42.5625 33.9748 42.5814 34.3568 42.6799 34.7218C42.7785 35.0868 42.9544 35.4263 43.1957 35.7171C43.1957 35.7171 43.6337 35.7955 43.1487 36.2499V36.9785L42.9297 36.9393C42.6434 36.4907 42.3949 36.019 42.1866 35.5291L41.9284 35.678C41.9284 35.678 41.3652 41.0915 44.9479 43.3008L45.0183 43.6299H41.24V30.3114H47.6702L51.9413 43.6691ZM46.5594 46.8028C45.6675 46.8449 44.7963 47.0858 44.0092 47.5079C43.7556 47.8228 43.4414 48.0835 43.0853 48.2746C42.7293 48.4657 42.3385 48.5833 41.9363 48.6204V49.0983L38.7681 49.3412C38.6248 49.1506 38.4204 49.0151 38.1893 48.9573C38.1893 48.9573 39.6442 47.4296 38.3614 46.2152C38.3493 46.1955 38.3415 46.1734 38.3385 46.1504C38.3355 46.1275 38.3374 46.1041 38.344 46.0819C38.3507 46.0598 38.3619 46.0392 38.377 46.0217C38.3922 46.0042 38.4108 45.99 38.4318 45.9802C39.6712 45.8162 40.9307 45.896 42.1396 46.2152C42.9877 46.4649 43.8846 46.4989 44.7492 46.3143C45.6137 46.1296 46.4187 45.7321 47.0913 45.1576C47.0913 45.1576 45.7849 46.4659 46.5594 46.8028ZM35.9755 46.8028C36.5482 46.4783 37.1648 46.2382 37.806 46.0899C38.0775 46.2757 38.2721 46.5542 38.3535 46.8733L38.3926 48.0172C38.3926 48.0172 38.2049 48.9181 37.4305 48.8789C36.8622 48.6208 36.3351 48.2803 35.866 47.8683C35.866 47.8683 36.0928 47.7664 35.9755 46.8185V46.8028ZM46.8879 46.1369L47.4902 45.4396C47.8008 45.216 48.0421 44.9091 48.1864 44.5543H51.4641L47.7875 47.2729C46.7315 46.6305 46.8879 46.1526 46.8879 46.1526V46.1369ZM48.8435 41.8985C48.8553 42.114 48.8224 42.3297 48.7471 42.5319C48.6717 42.7341 48.5554 42.9185 48.4055 43.0736C48.3203 42.8605 48.318 42.6232 48.3991 42.4085C48.4802 42.1938 48.6388 42.0174 48.8435 41.9142V41.8985ZM46.7471 42.6192C46.8025 41.9695 47.0786 41.3584 47.5294 40.8878C47.5577 41.2216 47.5007 41.5571 47.3639 41.8627C47.227 42.1683 47.0148 42.4341 46.7471 42.6349V42.6192ZM43.7667 35.9051C44.047 36.2232 44.2567 36.5971 44.3821 37.0022C44.5075 37.4073 44.5457 37.8345 44.4942 38.2555C44.4942 38.2555 44.3612 38.6159 43.6181 37.7776C43.4897 37.4794 43.4362 37.1543 43.4621 36.8307C43.488 36.5071 43.5926 36.1947 43.7667 35.9208V35.9051ZM43.0549 34.8553C42.961 34.3696 42.875 33.5627 43.0549 33.547C43.2637 33.7948 43.4171 34.0846 43.5048 34.3967C43.5925 34.7089 43.6125 35.0362 43.5633 35.3568C43.4437 35.3362 43.3337 35.2781 43.2493 35.1908C43.165 35.1034 43.1105 34.9914 43.094 34.871L43.0549 34.8553ZM46.9661 37.8403L47.0287 38.8431C46.4186 40.2376 46.0352 40.3316 46.0352 40.3316V38.8117C46.3376 38.4644 46.5664 38.0593 46.708 37.6209C46.8644 37.6052 47.0052 37.8559 47.0052 37.8559L46.9661 37.8403ZM46.8723 37.0568V36.7748C46.8723 36.7748 47.5137 36.5241 47.4981 37.5974C47.4981 37.5974 47.412 37.8873 47.1617 37.6757C47.1429 37.4451 47.0431 37.2286 46.8801 37.0646L46.8723 37.0568ZM46.3951 35.8268C46.223 35.5839 46.3951 34.8083 46.3951 34.8083C46.5907 34.6908 46.6924 34.8083 46.6924 34.8083C47.1539 35.7406 46.4029 35.8346 46.4029 35.8346L46.3951 35.8268ZM46.2543 33.9465C46.2543 33.9465 46.1526 33.2806 46.5046 33.218L46.575 34.0562C46.575 34.0562 46.2699 34.4715 46.2621 33.9544L46.2543 33.9465ZM46.3951 36.5789L46.4811 37.3624C46.3074 37.5177 46.1755 37.7144 46.0978 37.9343C46.034 37.8052 45.9302 37.7003 45.8019 37.6353C45.6735 37.5703 45.5276 37.5488 45.386 37.5739C45.5873 37.1273 45.951 36.7744 46.4029 36.5867L46.3951 36.5789ZM45.4407 38.0048L45.5033 38.2868L45.2452 38.373V38.1615L45.4407 38.0048ZM45.8553 38.4435L45.8162 39.227L44.9636 39.2818L45.0183 39.0233C45.4407 39.0938 45.824 38.4435 45.824 38.4435H45.8553ZM44.8228 37.8559L44.6898 36.8845C44.6898 36.8845 44.635 36.242 44.3847 36.2812V35.9835C44.3847 35.9835 44.6194 35.3411 44.9479 36.0305L45.0574 37.8951L44.8228 37.8559ZM44.3378 38.8979C44.3378 38.8979 44.7758 39.0859 44.8071 40.3473C44.8071 40.3473 42.5542 39.697 42.343 36.6337C42.7697 37.5598 43.4507 38.3451 44.3065 38.8979H44.3378ZM44.9714 41.6086L45.12 42.87C44.454 42.5011 43.8783 41.9884 43.4345 41.3692C42.9907 40.75 42.69 40.0396 42.5542 39.2896C42.5542 39.2896 44.5568 40.3786 44.9401 41.6399L44.9714 41.6086ZM45.0809 39.7127L45.7771 39.6108L45.7302 39.9712C45.7302 39.9712 45.4251 40.1122 45.4095 40.3473H45.1278L45.0809 39.7127ZM45.339 40.6058L45.7615 40.4883V41.1621C45.6023 41.3243 45.4983 41.5326 45.4642 41.7575L45.2374 41.8828L45.1357 40.786L45.339 40.6058ZM38.3848 26.9269C38.3459 26.6617 38.2256 26.4152 38.0406 26.2215C37.8556 26.0278 37.615 25.8965 37.3523 25.8458C37.6741 25.6114 37.9199 25.2873 38.059 24.9139C38.1982 24.5405 38.2244 24.1344 38.1345 23.7461C38.0971 23.6139 38.0896 23.4749 38.1126 23.3394C38.1357 23.2039 38.1886 23.0752 38.2675 22.9627C38.5178 22.6102 39.1671 22.1793 40.8489 22.2263C41.3668 22.3992 41.8232 22.7195 42.1622 23.148C42.5011 23.5766 42.7081 24.0948 42.7576 24.6393C42.7671 25.051 42.7383 25.4628 42.6716 25.8693C42.6716 25.9789 42.6716 26.0495 42.6716 26.0965C42.3709 26.5655 42.1982 27.1053 42.1707 27.662C42.1433 28.2188 42.262 28.773 42.5151 29.2694L40.5751 29.3948H39.5817C39.571 29.0612 39.4651 28.7377 39.2766 28.4625C39.1894 28.3505 39.0794 28.2584 38.954 28.1923C38.8286 28.1261 38.6906 28.0873 38.5491 28.0786H38.4005C38.2988 28.0786 38.0485 28.0786 37.9859 27.9689C37.9233 27.8592 37.9859 27.5772 38.3144 27.0836L38.3535 27.0131L38.3848 26.9269ZM40.4265 15.7002L47.1695 29.3869H43.0236C42.7385 28.9415 42.587 28.4235 42.587 27.8945C42.587 27.3654 42.7385 26.8474 43.0236 26.402C43.073 26.3419 43.103 26.2681 43.1096 26.1905C43.1096 26.1905 43.1096 26.0651 43.1096 25.9711C43.187 25.5316 43.221 25.0855 43.2113 24.6393C43.1588 24.0081 42.9247 23.4058 42.5373 22.9052C42.15 22.4046 41.626 22.0273 41.0288 21.8189H40.9819H40.935C39.3705 21.8189 38.377 22.1088 37.9233 22.7668C37.8044 22.9368 37.7251 23.1313 37.6912 23.3361C37.6574 23.5408 37.6699 23.7506 37.7277 23.9499C37.7926 24.2569 37.7639 24.5764 37.6454 24.867C37.5268 25.1575 37.3239 25.4057 37.0628 25.5794C37.0117 25.631 36.9743 25.6946 36.9538 25.7643C36.9333 25.8341 36.9305 25.9078 36.9455 25.979C36.9762 26.0648 37.026 26.1425 37.091 26.2062C37.156 26.27 37.2347 26.3182 37.321 26.3472C37.4798 26.3767 37.6283 26.4471 37.7517 26.5515C37.8751 26.6559 37.9693 26.7907 38.025 26.9426C37.6573 27.5145 37.5556 27.9454 37.7355 28.2509C37.8292 28.3767 37.9548 28.475 38.0992 28.5356C38.2437 28.5962 38.4017 28.617 38.5569 28.5957C38.6374 28.5977 38.7164 28.6178 38.7881 28.6544C38.8599 28.691 38.9225 28.7432 38.9715 28.8072C39.0911 28.995 39.1586 29.2113 39.1671 29.4339H33.7852L40.4265 15.7002ZM33.1985 30.3584H40.317V43.6769H37.188L37.6573 43.6299C39.3314 42.6976 38.9011 40.6058 38.9011 40.6058C38.127 41.0458 37.5359 41.749 37.2349 42.5879C37.0706 43.7944 36.6091 43.0031 36.6091 43.0031V41.6948C36.6091 41.2561 37.3288 40.7155 37.3288 40.7155C37.5968 40.6568 37.8495 40.5424 38.0707 40.3799C38.2919 40.2174 38.4766 40.0102 38.613 39.7718C38.7493 39.5334 38.8343 39.269 38.8623 38.9957C38.8904 38.7224 38.861 38.4462 38.7759 38.185C37.0315 38.7412 37.055 40.0496 37.055 40.0496C36.7499 40.9975 36.5387 40.4569 36.5387 40.4569L36.4527 39.0233C36.4527 38.7099 37.1723 38.044 37.1723 38.044C39.4096 37.5817 38.6117 35.3254 38.6117 35.3254C38.179 35.5474 37.8008 35.8629 37.5046 36.249C37.2083 36.6351 37.0013 37.0823 36.8985 37.5582C36.304 38.655 36.218 38.044 36.218 38.044V36.7278C38.6117 34.8945 38.0328 33.312 38.0328 33.312C36.2727 33.9309 36.3588 36.0383 36.3588 36.0383L36.0694 36.2499L35.9833 34.9415L36.0694 34.4401C36.1632 31.9488 35.1228 32.3875 35.1228 32.3875C34.2858 34.4401 35.6 35.3411 35.6 35.3411L35.7956 36.7669C35.7956 36.7669 35.381 37.6679 35.1228 36.3126C35.107 36.2584 35.0939 36.2035 35.0837 36.148C34.9489 35.7618 34.7191 35.4159 34.4156 35.142C34.1121 34.8682 33.7446 34.6753 33.3471 34.5811C33.1828 36.8374 34.6378 37.1117 34.6378 37.1117C35.0749 37.2047 35.478 37.416 35.8034 37.7227L35.9129 39.5795C35.4514 39.7362 35.1307 38.6394 35.1307 38.6394C34.9084 38.2262 34.5866 37.875 34.1946 37.6179C33.8025 37.3607 33.3526 37.2055 32.8856 37.1665C33.0342 39.5873 34.7239 39.8537 34.7239 39.8537C35.1385 39.7675 36.0146 40.4569 36.0146 40.4569L36.0928 42.6819C35.1541 43.0031 34.9742 41.9455 34.9742 41.9455C34.6354 41.3862 34.1728 40.9124 33.6221 40.5605C33.0715 40.2087 32.4475 39.9883 31.7983 39.9164C31.7983 42.7838 35.2167 43.0501 35.2167 43.0501C35.8894 42.8151 35.8034 43.3635 35.733 43.6377H28.7944L33.1985 30.3584ZM17.0372 32.7087L32.1268 30.5151L29.9834 37.1117L29.6862 34.9964L29.3654 34.636L29.3029 33.5157L28.9274 33.359C28.9274 33.359 28.5519 33.0691 29.7879 32.7322C29.7879 32.7322 30.9534 33.2258 31.0629 32.0976C31.0629 32.0976 31.149 31.463 30.6953 31.8626C30.6953 31.8626 30.7657 32.1838 29.5063 32.0663C29.5063 32.0663 28.2859 32.5207 28.458 34.5106L27.8792 34.5498L26.7293 34.4401L26.5728 33.8917C26.5728 33.8917 26.1426 33.547 26.9639 33.3041C26.9639 33.3041 28.1608 33.4686 27.9809 32.3562C27.9809 32.3562 27.7775 32.9986 26.917 32.6225C26.917 32.6225 25.6654 32.7636 25.8531 34.683H24.4216L24.4686 35.4273L22.2078 35.3254L24.0461 38.0048L29.9287 37.3232L27.9574 43.3948L17.0372 32.7087ZM25.2039 35.3724L27.1908 35.5526L28.2468 37.2213L26.4007 37.284L25.2039 35.3724ZM25.6889 37.4015L24.2026 37.4955L23.0761 35.7015L24.8284 36.0227L25.6889 37.4015ZM26.0956 34.3696L26.3929 34.2913L26.6041 34.777L26.1973 34.8788L26.0956 34.3696ZM27.6601 35.1531L29.3498 35.4821L29.6314 37.143L28.6145 37.0255L27.6601 35.1531ZM28.7005 34.589V33.9622L28.9978 33.8917V34.636L28.7005 34.589ZM25.9001 60.278L28.4737 45.2281L39.4252 53.1722L25.9001 60.278ZM29.295 44.6092H47.0835C46.3971 45.1987 45.5757 45.6088 44.6926 45.8029C43.8094 45.9971 42.892 45.9691 42.0223 45.7217V45.1106L38.111 45.6198L36.9377 45.8705C36.7241 46.0833 36.4681 46.2485 36.1863 46.3552C35.9046 46.4618 35.6034 46.5076 35.3027 46.4894C35.1429 46.6926 35.0559 46.9437 35.0559 47.2024C35.0559 47.461 35.1429 47.7122 35.3027 47.9153C37.6495 50.673 42.4682 49.6311 42.4682 49.6311C43.1174 49.6702 42.828 49.3255 42.828 49.3255C42.4995 49.2707 42.5073 48.8789 42.5073 48.8789L44.4864 48.4089C45.3078 48.2679 44.8071 47.6254 44.8071 47.6254L46.8957 47.3199C47.0336 47.4172 47.162 47.5273 47.279 47.6489L40.5047 52.569L29.295 44.6092ZM35.6704 47.1554C35.6704 47.3042 35.6704 47.4296 35.6078 47.4296C35.5452 47.4296 35.5296 47.3121 35.5061 47.171C35.4827 47.03 35.5061 46.9125 35.5765 46.9047C35.6469 46.8968 35.7017 46.9752 35.7095 47.124L35.6704 47.1554ZM46.4498 50.767C46.3624 50.8993 46.2471 51.0107 46.1119 51.0932C45.9767 51.1758 45.825 51.2276 45.6676 51.2449C45.3407 51.2678 45.0303 51.3971 44.7837 51.6132L44.3378 51.3154L46.3951 49.6389C46.5687 49.9752 46.6025 50.3667 46.489 50.7279L46.4498 50.767ZM46.4498 51.9735H46.5124C46.6937 52.1365 46.8034 52.3646 46.8175 52.6081C46.833 52.8501 46.7545 53.0887 46.5985 53.2741C46.5006 53.3875 46.3809 53.48 46.2465 53.546C46.1121 53.612 45.9657 53.65 45.8162 53.6579C45.5479 53.6843 45.28 53.6037 45.0706 53.4336C44.8612 53.2635 44.7272 53.0175 44.6976 52.7491C44.6954 52.4781 44.7987 52.2169 44.9856 52.0209C45.1726 51.8248 45.4284 51.7095 45.6989 51.6993C45.7845 51.6871 45.8714 51.6871 45.957 51.6993C46.093 51.7293 46.221 51.7881 46.3325 51.8717L46.4498 51.9735ZM54.8278 60.2388L41.3339 53.133L43.7354 51.386L43.8841 51.4878L44.5333 51.9265C44.3715 52.1751 44.2922 52.4684 44.3065 52.7648C44.3423 53.1579 44.5317 53.5209 44.8335 53.7748C45.1354 54.0287 45.5251 54.1528 45.9179 54.1202C46.1279 54.1072 46.3331 54.052 46.5213 53.9577C46.7095 53.8635 46.8767 53.7322 47.0131 53.5718C47.2536 53.2923 47.3744 52.9292 47.3494 52.5611C47.3329 52.3243 47.2576 52.0954 47.1304 51.8952C47.7953 51.6523 48.1786 50.767 48.3585 50.2421C48.5111 50.3618 48.6764 50.4642 48.8514 50.5477C48.6298 50.7187 48.4538 50.942 48.3392 51.1976C48.2246 51.4532 48.1748 51.7332 48.1943 52.0127C48.2033 52.2292 48.2551 52.4417 48.3467 52.638C48.4383 52.8343 48.5679 53.0104 48.728 53.1561C48.8881 53.3019 49.0754 53.4143 49.2792 53.487C49.483 53.5597 49.6992 53.5912 49.9152 53.5796C50.2703 53.5485 50.6065 53.4058 50.8757 53.1719C51.1448 52.9379 51.3333 52.6247 51.414 52.277C51.4947 51.9293 51.4636 51.565 51.325 51.2361C51.1865 50.9072 50.9477 50.6306 50.6427 50.4458C51.1053 50.1614 51.4646 49.7357 51.6675 49.2315L51.2372 49.0748C51.1212 49.379 50.9256 49.6464 50.671 49.849C50.4164 50.0516 50.1122 50.1819 49.7901 50.2265H49.6493C49.5062 50.2415 49.362 50.2415 49.219 50.2265C48.9238 50.1095 48.6571 49.9305 48.4368 49.7016L48.1473 49.1923L48.0143 49.7721C48.0143 49.7721 47.5763 51.5505 46.7158 51.5035C46.6553 51.457 46.5897 51.4175 46.5203 51.386C46.6583 51.278 46.775 51.1451 46.8644 50.9942C46.9865 50.7054 47.0421 50.3928 47.0272 50.0795C47.0123 49.7663 46.9273 49.4604 46.7784 49.1845L52.2542 45.2124L54.8278 60.2388ZM49.6571 50.7122H49.8448C50.1401 50.7176 50.4225 50.8343 50.6357 51.0391C50.8489 51.2438 50.9771 51.5216 50.9947 51.8168C51.0185 52.1345 50.9159 52.4487 50.7093 52.6908C50.5026 52.933 50.2088 53.0835 49.8918 53.1095C49.7366 53.118 49.5813 53.0957 49.4347 53.0439C49.2882 52.9921 49.1533 52.9119 49.0377 52.8079C48.9222 52.7038 48.8283 52.5779 48.7614 52.4374C48.6945 52.297 48.656 52.1446 48.648 51.9892C48.6251 51.6858 48.7182 51.3851 48.9085 51.148C49.0988 50.9109 49.372 50.7551 49.6727 50.7122H49.6571ZM63.7376 32.693L52.7861 43.3478L50.236 35.5134C51.1107 35.9738 52.0379 36.3263 52.9973 36.5632C52.9973 36.5632 52.9347 36.6964 51.644 36.5632C51.644 36.5632 51.4484 37.4172 54.1941 36.9158C55.3603 36.4554 56.6347 36.3439 57.8629 36.5946C57.8629 36.5946 58.9424 36.9863 57.9568 36.0853C57.9568 36.0853 60.5226 34.683 61.3909 34.8788L61.8524 34.2756L60.1393 34.4558C59.9953 34.1122 59.7883 33.7986 59.5291 33.5313C59.5291 33.5313 58.9737 33.688 58.872 32.9281L58.1993 32.8497L56.095 31.8313C56.095 31.8313 55.8916 31.6432 54.2802 31.4395L52.1212 31.3847C52.1212 31.3847 51.3937 31.5571 51.3389 32.7871C51.3389 32.7871 51.4641 34.9102 52.1916 34.7848C52.1916 34.7848 52.0351 35.1922 52.1916 35.3724C51.4551 35.3439 50.7305 35.1764 50.056 34.8788L48.6323 30.4994L63.7376 32.693ZM57.2293 33.7429L54.687 32.5677C54.7778 32.4101 54.9092 32.2797 55.0674 32.1901C55.2256 32.1006 55.4049 32.0551 55.5866 32.0584L58.1054 33.2885C58.1054 33.2885 58.4965 33.6802 57.2684 33.7585L57.2293 33.7429ZM58.5278 33.9152L58.9659 34.7927L57.9802 34.9885L57.7456 34.2051L58.5278 33.9152ZM57.2058 35.2941L52.7157 35.4743C52.7157 35.4743 52.1681 34.73 53.5683 34.4323L57.1354 34.3304L57.2058 35.2941ZM56.494 33.7899L53.9204 34.0327C53.8896 33.9226 53.8811 33.8075 53.8952 33.6941C53.9093 33.5807 53.9459 33.4712 54.0027 33.372C54.0594 33.2729 54.1353 33.186 54.226 33.1165C54.3166 33.047 54.4201 32.9963 54.5305 32.9672L56.494 33.7899ZM53.4745 33.9309L52.8096 34.1111C51.8865 35.1374 51.7926 32.5442 51.7926 32.5442C52.0586 31.7608 52.4341 31.9253 52.4341 31.9253H54.6557C53.2633 33.3276 53.5136 33.9465 53.5136 33.9465L53.4745 33.9309Z" fill="#006536"/>
<path d="M40.3881 11.6733C34.7506 11.6764 29.2406 13.3536 24.5549 16.4927C19.8691 19.6319 16.2179 24.0922 14.063 29.3095C11.9082 34.5268 11.3464 40.2669 12.4487 45.8039C13.5509 51.341 16.2678 56.4264 20.2557 60.4171C24.2437 64.4078 29.3236 67.1246 34.8532 68.224C40.3827 69.3234 46.1136 68.756 51.3213 66.5936C56.5289 64.4312 60.9793 60.7708 64.1099 56.0753C67.2405 51.3798 68.9106 45.8601 68.909 40.214C68.908 36.4643 68.1694 32.7516 66.7354 29.2878C65.3015 25.824 63.2002 22.677 60.5517 20.0267C57.9032 17.3763 54.7593 15.2745 51.2996 13.8412C47.8399 12.4079 44.1321 11.6712 40.3881 11.6733ZM40.3881 67.5248C34.9947 67.5248 29.7225 65.9231 25.2381 62.9221C20.7536 59.9212 17.2585 55.6558 15.1945 50.6654C13.1306 45.675 12.5905 40.1838 13.6427 34.886C14.6949 29.5882 17.2921 24.7219 21.1058 20.9024C24.9194 17.0829 29.7784 14.4818 35.0681 13.4281C40.3578 12.3743 45.8408 12.9151 50.8236 14.9822C55.8064 17.0493 60.0653 20.5498 63.0617 25.041C66.0581 29.5322 67.6574 34.8125 67.6574 40.214C67.6409 47.448 64.7626 54.3806 59.653 59.4935C54.5434 64.6065 47.6189 67.4831 40.3959 67.4935L40.3881 67.5248Z" fill="#006536"/>
<path d="M9.22227 53.039C8.53036 53.0359 7.8531 53.2384 7.2762 53.621C6.69929 54.0036 6.24868 54.549 5.9814 55.1881C5.71412 55.8273 5.64217 56.5315 5.77469 57.2116C5.9072 57.8918 6.23821 58.5172 6.72582 59.0089C7.21342 59.5005 7.83571 59.8362 8.5139 59.9735C9.19209 60.1108 9.89571 60.0435 10.5357 59.7801C11.1757 59.5167 11.7232 59.0691 12.1091 58.4939C12.4949 57.9187 12.7017 57.2418 12.7033 56.5488C12.7053 56.0893 12.6169 55.6339 12.443 55.2086C12.269 54.7834 12.0131 54.3967 11.6897 54.0707C11.3664 53.7447 10.982 53.4858 10.5586 53.3087C10.1352 53.1317 9.68109 53.04 9.22227 53.039Z" fill="#006536"/>
<path d="M71.5602 52.7649C70.8655 52.7571 70.1841 52.9563 69.6027 53.3372C69.0212 53.7182 68.566 54.2636 68.2947 54.9042C68.0235 55.5448 67.9485 56.2517 68.0792 56.9351C68.21 57.6185 68.5407 58.2475 69.0292 58.7423C69.5177 59.2371 70.142 59.5753 70.8229 59.7139C71.5037 59.8525 72.2104 59.7854 72.853 59.5209C73.4957 59.2564 74.0453 58.8066 74.4321 58.2286C74.819 57.6506 75.0255 56.9705 75.0256 56.2747C75.0277 55.3499 74.6645 54.4619 74.0153 53.8044C73.3661 53.1468 72.4835 52.7731 71.5602 52.7649Z" fill="#006536"/>
<path d="M27.3092 75.3278L24.0472 73.9254L23.7812 74.8107L25.4709 75.4296C26.4018 75.7979 26.0185 76.4089 26.0185 76.4089L25.2362 78.297L27.2701 79.0805L27.8177 77.255C28.3418 75.6255 27.3092 75.3278 27.3092 75.3278Z" fill="#006536"/>
<path d="M16.8884 62.6047C16.0122 63.349 16.3017 63.5449 16.3017 63.5449C17.0877 64.3525 17.9294 65.1038 18.8205 65.7933C19.0787 65.9578 18.9222 66.3182 18.9222 66.3182C18.5311 66.7805 18.3042 66.4044 18.3042 66.4044L15.8558 64.626C15.2691 64.1951 15.0735 64.5555 15.0735 64.5555L12.0697 68.0105C11.8949 68.3256 11.7949 68.6767 11.7772 69.0367C11.7596 69.3967 11.8249 69.7559 11.968 70.0866L15.8793 73.3065L20.5728 67.8225C20.8622 67.3837 21.1595 67.6109 21.1595 67.6109L22.0982 68.3944L18.0618 74.8029L19.9235 75.9467L24.6874 68.5902C21.7591 67.0659 19.1196 65.0402 16.8884 62.6047ZM17.5533 67.8381L14.9327 70.87C14.9327 70.87 14.26 71.0032 13.8845 70.0866C13.8845 70.0866 13.6107 69.7262 14.1583 69.0133C14.1583 69.0133 16.2235 66.2164 16.8493 66.4122L17.8427 67.1957C17.8427 67.1957 18.1165 67.2897 17.5533 67.8381Z" fill="#006536"/>
<path d="M28.7632 70.5567L26.7998 69.4834C25.2353 69.123 24.8911 71.0503 24.8911 71.0503C24.3122 72.5545 24.8911 72.8443 24.8911 72.8443C25.4778 73.4431 26.2159 73.8709 27.0266 74.0822C27.1285 74.1683 27.2478 74.2313 27.3764 74.2668C27.5049 74.3023 27.6396 74.3095 27.7712 74.288C27.9027 74.2664 28.0281 74.2165 28.1386 74.1417C28.2491 74.067 28.3421 73.9692 28.4112 73.855L29.0135 72.1941C29.4438 70.7447 28.7632 70.5567 28.7632 70.5567ZM27.5116 72.2489C27.5116 72.2489 27.2144 73.1499 26.8545 73.0324C26.7217 73.0054 26.5963 72.9502 26.4866 72.8705C26.377 72.7907 26.2857 72.6884 26.2189 72.5703C26.1522 72.4522 26.1115 72.3211 26.0997 72.1859C26.0879 72.0507 26.1052 71.9146 26.1505 71.7867C26.4634 70.8152 26.4399 71.0033 26.4399 71.0033C26.5672 70.8644 26.7427 70.7797 26.9305 70.7666C27.1182 70.7535 27.3038 70.813 27.449 70.9328C27.449 70.9328 27.9966 71.0973 27.5116 72.2489Z" fill="#006536"/>
<path d="M69.5189 68.6687L68.8305 68.8175L62.9245 62.6519L61.5712 64.1247L62.2909 65.0492C59.1619 65.2921 59.7251 67.5797 59.7251 67.5797C58.5473 67.2701 57.299 67.3752 56.1893 67.8774C44.0175 75.5786 30.7035 71.1209 30.7035 71.1209V72.1942C32.268 72.8288 36.3279 73.1735 36.3279 73.1735L36.1324 74.7403L35.9837 74.7952C35.3032 74.1606 33.4571 74.1606 33.4571 74.1606L31.7205 73.6122C30.2185 73.2753 30.3593 73.9099 30.3593 73.9099L29.6318 78.493C29.7726 80.6553 32.9721 80.3576 32.9721 80.3576V79.6839C32.8292 79.7061 32.6833 79.6998 32.5429 79.6652C32.4025 79.6307 32.2703 79.5687 32.154 79.4828C32.0376 79.3968 31.9394 79.2886 31.865 79.1645C31.7906 79.0403 31.7415 78.9027 31.7205 78.7594L32.2055 75.0381C32.5888 74.6542 33.371 75.1869 33.371 75.1869L33.1207 77.3962L34.427 77.3414L34.6695 75.4376C36.0307 75.0929 35.929 76.6441 35.929 76.6441L35.2015 80.8042L37.3761 81.0079L38.4009 73.3693C38.9945 73.4357 39.5943 73.4226 40.1844 73.3302L40.6694 81L42.7971 80.953L42.3122 73.3302L44.0175 73.1343L45.2691 78.7516C45.277 78.976 45.3298 79.1965 45.4244 79.4C45.519 79.6036 45.6534 79.786 45.8198 79.9366C45.9861 80.0871 46.181 80.2026 46.3927 80.2763C46.6045 80.35 46.8289 80.3803 47.0526 80.3655L48.7032 80.0207C49.6731 79.8876 49.0943 79.2921 49.0943 79.2921H48.4059C47.6236 79.535 47.4516 78.3207 47.4516 78.3207L46.0983 72.7974C47.1043 72.6705 48.095 72.4422 49.0552 72.1158L51.2768 78.2188C51.7539 78.6106 52.5831 77.835 52.5831 77.835C54.6639 77.9681 54.9299 73.7375 54.9299 73.7375L56.9168 77.357L58.6691 76.2759L56.1424 70.8545C55.6437 70.9842 55.159 71.1626 54.6952 71.3872C54.4773 71.4652 54.2779 71.5877 54.1096 71.7468C53.9412 71.9059 53.8077 72.0983 53.7174 72.3117C54.0147 75.0459 52.9351 76.127 52.9351 76.127L51.1907 71.5282C52.3093 70.9955 53.5375 70.3609 56.6665 68.9899C59.7955 67.6189 60.39 70.024 60.39 70.024C60.6794 71.6849 60.39 71.2462 59.3261 71.1992C58.2623 71.1522 58.7942 71.7319 58.7942 71.7319C62.2283 74.615 62.3769 71.0503 62.3769 71.0503C65.8188 71.4969 64.356 67.9714 63.6911 67.6815C63.0262 67.3917 63.3547 68.324 63.3547 68.324C63.1592 69.6401 62.0953 68.8567 62.0953 68.8567C61.7442 68.4992 61.4321 68.1053 61.1644 67.6815C60.8281 67.1018 61.1644 66.0598 62.4317 66.1147C63.6989 66.1695 63.8867 66.4672 63.8867 66.4672C63.8867 66.4672 65.8736 68.7157 67.0157 69.8908C68.1578 71.066 68.6741 70.0789 68.6741 70.0789L69.4563 69.3973C70.1369 68.9115 69.5189 68.6687 69.5189 68.6687Z" fill="#006536"/>
<path d="M4.41233 42.486L7.54134 42.5643C7.55847 43.9333 7.77454 45.2925 8.18278 46.5991C9.08623 46.7108 10.0031 46.5838 10.8424 46.2308C10.9869 46.1543 11.1147 46.0499 11.2186 45.9236C11.3225 45.7972 11.4003 45.6515 11.4476 45.4949C11.4949 45.3383 11.5107 45.1738 11.4941 45.011C11.4775 44.8482 11.4288 44.6903 11.3509 44.5464C10.819 43.387 11.0145 40.3394 11.0145 40.3394L9.94285 40.2532L10.0211 38.3573H9.23883L9.30141 42.4547L10.0837 42.5487C10.2209 43.1229 10.2209 43.7215 10.0837 44.2958C9.65972 44.3515 9.22893 44.3222 8.8164 44.2096C8.8164 44.2096 8.32359 41.256 8.56609 40.4177L1.04864 40.3315L1.60405 33.2022L2.85564 33.2649L2.43323 37.472L7.38489 37.942C7.38489 37.942 8.68343 38.1692 8.69907 35.9443C8.79015 34.6937 8.99172 33.4536 9.30141 32.2386L2.2142 30.8206C2.3784 29.8154 2.6404 28.8288 2.99646 27.8748L9.93503 30.4053L10.5765 28.1725L3.67701 25.7125C3.67701 25.7125 6.02377 20.0639 8.41746 17.0947L9.30923 17.8233C8.02765 19.5968 6.91709 21.4881 5.99248 23.4719L9.61431 25.5402C9.61431 25.5402 10.4983 26.3236 11.742 25.3051L13.244 22.9548L12.2036 22.3281L11.7107 23.1115C11.7107 23.1115 11.39 23.9498 10.4748 23.1898L8.12803 21.9677L8.91028 20.7533L10.7251 21.7405L11.5074 20.5731L9.73165 19.3432L10.42 18.497L14.4173 21.1216L15.8097 19.4763L9.80205 15.2536C10.365 14.4853 11.0132 13.7836 11.7342 13.1618L16.7797 18.1915L18.5007 16.6246L12.3678 10.3571C12.3678 10.3571 11.0224 9.08789 9.37181 10.788L4.81911 16.1702C4.81911 16.1702 5.21805 17.22 5.9299 16.6638C5.9299 16.6638 9.05891 12.5115 9.84117 11.8926C9.84117 11.8926 11.1162 11.6341 10.7173 12.6291C7.03357 16.6598 4.19359 21.3889 2.36502 26.5371C0.536448 31.6854 -0.243639 37.1484 0.0708263 42.6035L1.10341 42.7132C1.10341 42.7132 -0.351593 44.2801 1.03299 47.4922C1.03299 47.4922 4.24805 47.1867 5.2728 47.0613C5.40967 45.5962 5.00926 44.1314 4.14637 42.9404C4.14637 42.9404 3.98209 42.5017 4.41233 42.486ZM4.05249 33.6958L7.61956 34.2442L7.57263 34.8004C7.41618 35.9678 6.89207 35.7641 6.89207 35.7641L3.84911 35.3097L4.05249 33.6958ZM2.36282 45.0244H1.58057C1.53797 44.6406 1.5743 44.2521 1.68731 43.8829C1.80032 43.5137 1.98762 43.1716 2.23767 42.8777C2.76178 42.3606 3.0825 42.7602 3.0825 42.7602L3.80217 44.4681C3.80217 44.4681 4.31845 45.1889 2.36282 45.0244Z" fill="#006536"/>
<path d="M20.2443 6.47909L23.475 4.67718L23.8427 5.23342C24.2651 5.80533 23.8427 5.89151 23.8427 5.89151L21.1908 7.2077C20.1974 7.62292 20.3069 8.17133 20.3069 8.17133L21.9653 11.8143C22.1602 12.1247 22.4535 12.3605 22.7981 12.4841C23.1428 12.6077 23.5189 12.6119 23.8662 12.4959C24.9185 11.8902 26.0051 11.3461 27.1203 10.8664C28.3798 10.7253 28.2311 10.0829 28.2311 10.0829L25.814 3.73704C27.0453 3.24503 28.3074 2.83416 29.5922 2.50705L28.4736 3.8624C29.2559 3.96425 29.9364 7.71693 29.9364 7.71693C30.0093 7.84375 30.0453 7.98848 30.0403 8.13473C30.0353 8.28098 29.9895 8.42289 29.908 8.5444C29.8266 8.6659 29.7128 8.76215 29.5796 8.82222C29.4464 8.88228 29.299 8.90377 29.1542 8.88426C29.0408 9.04829 28.9861 9.24585 28.9988 9.44493C29.0116 9.64401 29.0912 9.83294 29.2246 9.98107L30.9925 9.49534C32.7291 9.14279 32.0016 7.30954 32.0016 7.30954L31.102 3.70571C30.5701 3.70571 30.6796 3.3845 30.6796 3.3845C32.1502 1.31621 33.4253 1.55908 33.4253 1.55908L34.364 8.61005L36.6247 8.30451L35.4435 0.250732C27.2846 0.806976 19.3369 5.73482 19.3369 5.73482C19.9236 6.98833 20.2443 6.47909 20.2443 6.47909ZM25.9235 10.0751C25.9235 10.0751 25.8765 10.3963 25.329 10.5922C25.329 10.5922 24.2338 11.5245 23.8427 10.3571L22.9118 8.00681C22.9118 8.00681 22.6849 7.80311 23.2403 7.49757L24.4998 6.90998L25.9235 10.0751Z" fill="#006536"/>
<path d="M39.5352 4.03476L41.6082 4.3168C43.3214 4.48915 43.2118 4.04259 43.2118 4.04259L43.3683 1.46507C43.5404 0.438763 42.2653 0.0940488 42.2653 0.0940488L38.8469 0.0313721L38.7061 2.6324C38.7686 3.83107 39.5352 4.03476 39.5352 4.03476ZM40.3175 2.35819L40.3957 0.995002H41.2875C41.8664 1.06551 41.8272 1.52775 41.8272 1.52775L41.7099 3.09463H40.826C40.1532 3.06329 40.2862 2.32686 40.2862 2.32686L40.3175 2.35819Z" fill="#006536"/>
<path d="M41.139 8.06943L42.6644 8.28097L42.8208 6.39287C42.9694 5.10019 41.3815 5.10803 41.3815 5.10803L38.6905 4.93567L38.6201 5.90714L41.2016 6.03249L41.139 8.06943Z" fill="#006536"/>
<path d="M47.2015 8.9938C48.192 9.08428 49.1586 9.34952 50.0568 9.77725C50.4792 10.0358 50.7217 9.93393 50.7217 9.93393C50.7292 9.76235 50.7527 9.59186 50.7921 9.4247L51.9029 5.33513L53.3813 5.76603C53.9211 6.10291 53.6238 6.35361 53.6238 6.35361L53.35 7.44259C53.2171 8.17903 52.1688 7.54443 52.1688 7.54443L51.895 8.75877L52.865 9.07998C54.985 9.50304 54.8911 8.50807 55.4465 7.36424C56.0019 6.22042 55.8924 5.52315 54.8363 5.10793C53.7803 4.69271 52.1532 4.18347 52.1532 4.18347L52.4661 3.11799C53.6004 3.165 56.6433 4.56735 56.6433 4.56735L56.9328 3.78391C53.2171 1.7313 46.6461 0.650146 46.6461 0.650146L46.5444 1.64512C47.8674 1.79854 49.1756 2.06056 50.4557 2.42856L50.268 3.50971C48.9475 3.14381 47.6006 2.88187 46.2394 2.72627L45.4415 6.38494C45.3803 6.67243 45.3777 6.96931 45.4337 7.25784C45.4898 7.54637 45.6033 7.82061 45.7677 8.06416C45.932 8.30771 46.1436 8.51557 46.39 8.6753C46.6364 8.83504 46.9124 8.94337 47.2015 8.9938ZM47.9838 4.40284L49.7126 4.50469L48.9303 8.0145C48.9303 8.0145 47.6631 8.36705 47.5457 7.37207L47.9838 4.40284Z" fill="#006536"/>
<path d="M69.2693 13.4986L68.9955 13.7102C68.7833 13.4678 68.6568 13.1622 68.6357 12.8405V12.7779C68.6157 12.6087 68.6157 12.4378 68.6357 12.2686L67.5171 10.8584L67.3919 10.6939L66.9538 10.1455L66.86 10.216L66.3906 10.5999L63.4337 12.9581L64.9982 14.901L66.4689 15.3632L66.6175 15.6139L63.7466 17.8937L63.3398 18.215C63.8796 18.779 64.4037 19.3666 64.9043 19.962L70.8651 15.2614L71.3345 14.8853C70.8416 14.2899 70.3332 13.7023 69.77 13.1382L69.2693 13.4986ZM67.4467 14.8383C65.9682 14.6268 65.6006 13.9765 65.6006 13.9765L67.6266 12.3705C68.0508 12.856 68.3062 13.4663 68.3541 14.1097L67.4467 14.8383Z" fill="#006536"/>
<path d="M65.3022 10.0751L65.4508 9.92627L65.8811 9.51105C66.1705 8.9078 66.9371 9.73041 66.9371 9.73041L69.4169 12.3628L70.074 11.7438L66.8667 8.33589C65.3022 6.86302 64.4496 7.999 64.4496 7.999L64.2149 8.21836L63.7768 8.61793L58.0977 13.8591C58.6843 14.2509 59.2554 14.6426 59.803 15.1048L65.3022 10.0751Z" fill="#006536"/>
<path d="M70.3719 20.5967L71.3653 22.3203L71.7721 22.0852C71.7721 22.0852 71.0446 21.1843 71.7252 20.7299L73.8373 19.5234L74.1032 19.9934L74.6273 20.9101L68.737 24.3024L67.6653 22.4221C67.6092 22.3104 67.5941 22.1824 67.6227 22.0607C67.6513 21.9389 67.7218 21.8311 67.8217 21.7562L69.0264 21.0667L67.8921 19.0846L67.0004 19.5939C65.8505 20.2598 66.531 21.9442 66.531 21.9442L69.1829 26.5587L70.2545 25.9398L75.6599 22.806L76.1918 22.4926L75.7929 21.7954V21.7405L75.6599 21.4977L74.5413 19.5626L74.2284 19.022L73.7669 18.2385C73.703 18.1334 73.6208 18.0405 73.5244 17.9643L73.4774 17.9252C73.3622 17.8525 73.2332 17.8046 73.0986 17.7844C72.964 17.7641 72.8266 17.772 72.6952 17.8076L72.5622 17.8703L70.5831 18.9201C70.5831 18.9201 69.7774 19.4059 70.3719 20.5967Z" fill="#006536"/>
<path d="M80.5172 36.6573H80.2825C80.2825 36.5476 80.2825 36.4458 80.2825 36.3439C80.2825 36.2421 80.2825 36.1324 80.2825 36.0305C80.2304 35.5553 80.1678 35.0774 80.0948 34.5969L80.0244 34.0876C80.0244 33.9466 79.9853 33.8056 79.9618 33.6646C79.9543 33.5995 79.9543 33.5338 79.9618 33.4687C79.9227 33.2258 79.8758 32.9908 79.8288 32.7558C79.8252 32.6984 79.8252 32.6408 79.8288 32.5834C79.7663 32.2622 79.688 31.941 79.6176 31.6276C79.5472 31.3142 79.5159 31.1497 79.4612 30.9147C79.4612 30.8677 79.4612 30.8207 79.4221 30.7737L79.2343 30.0451L78.9762 29.1206C78.8901 28.8307 78.8041 28.5487 78.7102 28.2666C78.6163 27.9846 78.5772 27.8514 78.5068 27.6477C78.2252 26.8016 77.928 25.9633 77.5994 25.1486L76.7155 25.4071C77.4713 27.2578 78.0909 29.1614 78.5694 31.1027L77.7402 31.2907L75.9489 25.5638L71.1458 26.9818C71.1458 26.9818 70.2384 27.2952 70.52 28.5487L71.0598 30.3741L71.5213 30.2409C71.5213 30.2409 71.0363 29.2381 71.8107 28.9561L75.9332 27.7496L76.2539 28.8464L73.7116 29.6298L74.2592 31.4944L76.6607 30.7893L76.9032 31.5728L71.3727 32.9516C71.5682 33.7351 71.7169 34.5185 71.842 35.302C71.842 35.302 71.842 35.3411 71.842 35.349L79.0075 33.8369C79.1639 34.7614 79.2891 35.6937 79.3751 36.6416L72.0298 36.7905C72.0298 36.7905 72.1628 38.091 72.194 38.7491H79.5081C79.5081 39.2348 79.5472 39.7206 79.5472 40.2141C79.5472 40.3316 79.5472 40.4413 79.5472 40.551C79.2648 40.8996 78.8636 41.1313 78.4208 41.2013L75.1744 41.0368C75.1744 41.0368 74.2905 40.9036 74.3374 40.4962L74.3922 39.4464H73.649L73.5552 41.3423C73.5212 41.5969 73.5407 41.8559 73.6122 42.1026C73.6838 42.3493 73.8059 42.5783 73.9708 42.7751C74.1356 42.9719 74.3396 43.1322 74.5698 43.2456C74.7999 43.3591 75.0511 43.4233 75.3074 43.4341H75.7455C75.7148 43.7562 75.5985 44.0642 75.4087 44.326C75.2188 44.5878 74.9623 44.7938 74.666 44.9226L71.9594 44.6171V44.7033C71.8655 45.3692 71.756 46.0351 71.6152 46.6854C71.6188 46.7401 71.6188 46.7951 71.6152 46.8499L75.7611 47.3121L78.8901 47.6725C78.8901 47.8292 78.8354 47.9859 78.8041 48.1425H79.1013L79.7193 48.2052C79.8601 47.508 79.9775 46.795 80.0791 46.0821L80.1261 45.7766C80.1261 45.6825 80.1261 45.4945 80.1261 45.4945V45.2987C80.1808 44.7973 80.2356 44.288 80.2825 43.7788C80.2825 43.6769 80.2825 43.5751 80.2825 43.4732V43.1834C80.2825 43.1834 80.2825 43.1442 80.2825 43.1207C80.2786 43.0974 80.2786 43.0735 80.2825 43.0502V42.6428C80.2825 42.4391 80.2825 42.2276 80.2825 42.0239C80.2825 41.4285 80.3295 40.833 80.3216 40.2376V40.0731V39.8459C80.3216 39.8459 80.3216 39.1016 80.3216 38.7334L80.4468 38.6786C81.0804 38.5062 81.1274 39.603 81.1274 39.603L81.0022 43.2147L81.9018 43.2539L82.0661 38.5532C82.113 36.4458 80.5172 36.6573 80.5172 36.6573ZM79.203 45.4162L76.7624 45.1498L76.3634 45.095C76.6505 44.6017 76.789 44.0357 76.7624 43.4654L77.8341 43.5202C77.8341 43.5202 78.2956 43.6613 79.4768 42.5331C79.4142 43.5046 79.3204 44.4682 79.203 45.4162Z" fill="#006536"/>
</g>
<defs>
<clipPath id="clip0_281_4480">
<rect width="435.566" height="81" fill="white"/>
</clipPath>
</defs>
</svg>
